<?xml version="1.0" encoding="UTF-8" standalone="no"?>
<svg
   xmlns:dc="http://purl.org/dc/elements/1.1/"
   xmlns:cc="http://creativecommons.org/ns#"
   xmlns:rdf="http://www.w3.org/1999/02/22-rdf-syntax-ns#"
   xmlns:svg="http://www.w3.org/2000/svg"
   xmlns="http://www.w3.org/2000/svg"
   xmlns:sodipodi="http://sodipodi.sourceforge.net/DTD/sodipodi-0.dtd"
   xmlns:inkscape="http://www.inkscape.org/namespaces/inkscape"
   width="200"
   height="50"
   viewBox="0 0 55.5625 78.581249"
   version="1.1"
   id="svg2121"
   inkscape:version="1.0 (4035a4fb49, 2020-05-01)"
   sodipodi:docname="web-talkie-cbmdf.svg">
  <defs
     id="defs2115" />
  <sodipodi:namedview
     id="base"
     pagecolor="#ffffff"
     bordercolor="#666666"
     borderopacity="1.0"
     inkscape:pageopacity="0.0"
     inkscape:pageshadow="2"
     inkscape:zoom="1.979899"
     inkscape:cx="387.85315"
     inkscape:cy="89.240416"
     inkscape:document-units="px"
     inkscape:current-layer="layer1"
     inkscape:document-rotation="0"
     showgrid="false"
     units="px"
     inkscape:window-width="1920"
     inkscape:window-height="1017"
     inkscape:window-x="-8"
     inkscape:window-y="-8"
     inkscape:window-maximized="1" />
  <metadata
     id="metadata2118">
    <rdf:RDF>
      <cc:Work
         rdf:about="">
        <dc:format>image/svg+xml</dc:format>
        <dc:type
           rdf:resource="http://purl.org/dc/dcmitype/StillImage" />
        <dc:title />
      </cc:Work>
    </rdf:RDF>
  </metadata>
  <g
     inkscape:label="Layer 1"
     inkscape:groupmode="layer"
     id="layer1">
    <g
       style="fill:#d40000;fill-opacity:1;stroke-width:3.59687"
       transform="matrix(0.07355936,0,0,0.07355936,-128.03465,14.337439)"
       id="g1744">
      <g
         style="fill:#d40000;fill-opacity:1;stroke-width:3.59687"
         id="g1712">
        <g
           style="fill:#d40000;fill-opacity:1;stroke-width:3.59687"
           id="g1710">
          <path
             style="fill:#d40000;fill-opacity:1;stroke-width:3.59687"
             d="m 237.541,328.897 c 25.128,0 46.632,-8.946 64.523,-26.83 17.888,-17.884 26.833,-39.399 26.833,-64.525 V 91.365 c 0,-25.126 -8.938,-46.632 -26.833,-64.525 C 284.173,8.951 262.669,0 237.541,0 212.416,0 190.909,8.951 173.017,26.84 155.124,44.73 146.179,66.239 146.179,91.365 v 146.177 c 0,25.125 8.949,46.641 26.838,64.525 17.889,17.884 39.399,26.83 64.524,26.83 z"
             id="path1706" />
          <path
             style="fill:#d40000;fill-opacity:1;stroke-width:3.59687"
             d="m 396.563,188.15 c -3.606,-3.617 -7.898,-5.426 -12.847,-5.426 -4.944,0 -9.226,1.809 -12.847,5.426 -3.613,3.616 -5.421,7.898 -5.421,12.845 v 36.547 c 0,35.214 -12.518,65.333 -37.548,90.362 -25.022,25.03 -55.145,37.545 -90.36,37.545 -35.214,0 -65.334,-12.515 -90.365,-37.545 -25.028,-25.022 -37.541,-55.147 -37.541,-90.362 v -36.547 c 0,-4.947 -1.809,-9.229 -5.424,-12.845 -3.617,-3.617 -7.895,-5.426 -12.847,-5.426 -4.952,0 -9.235,1.809 -12.85,5.426 -3.618,3.616 -5.426,7.898 -5.426,12.845 v 36.547 c 0,42.065 14.04,78.659 42.112,109.776 28.073,31.118 62.762,48.961 104.068,53.526 v 37.691 h -73.089 c -4.949,0 -9.231,1.811 -12.847,5.428 -3.617,3.614 -5.426,7.898 -5.426,12.847 0,4.941 1.809,9.233 5.426,12.847 3.616,3.614 7.898,5.428 12.847,5.428 h 182.719 c 4.948,0 9.236,-1.813 12.847,-5.428 3.621,-3.613 5.431,-7.905 5.431,-12.847 0,-4.948 -1.81,-9.232 -5.431,-12.847 -3.61,-3.617 -7.898,-5.428 -12.847,-5.428 h -73.08 v -37.691 c 41.299,-4.565 75.985,-22.408 104.061,-53.526 28.076,-31.117 42.12,-67.711 42.12,-109.776 v -36.547 c 0,-4.946 -1.813,-9.225 -5.435,-12.845 z"
             id="path1708" />
        </g>
      </g>
      <g
         style="fill:#d40000;fill-opacity:1;stroke-width:3.59687"
         id="g1714" />
      <g
         style="fill:#d40000;fill-opacity:1;stroke-width:3.59687"
         id="g1716" />
      <g
         style="fill:#d40000;fill-opacity:1;stroke-width:3.59687"
         id="g1718" />
      <g
         style="fill:#d40000;fill-opacity:1;stroke-width:3.59687"
         id="g1720" />
      <g
         style="fill:#d40000;fill-opacity:1;stroke-width:3.59687"
         id="g1722" />
      <g
         style="fill:#d40000;fill-opacity:1;stroke-width:3.59687"
         id="g1724" />
      <g
         style="fill:#d40000;fill-opacity:1;stroke-width:3.59687"
         id="g1726" />
      <g
         style="fill:#d40000;fill-opacity:1;stroke-width:3.59687"
         id="g1728" />
      <g
         style="fill:#d40000;fill-opacity:1;stroke-width:3.59687"
         id="g1730" />
      <g
         style="fill:#d40000;fill-opacity:1;stroke-width:3.59687"
         id="g1732" />
      <g
         style="fill:#d40000;fill-opacity:1;stroke-width:3.59687"
         id="g1734" />
      <g
         style="fill:#d40000;fill-opacity:1;stroke-width:3.59687"
         id="g1736" />
      <g
         style="fill:#d40000;fill-opacity:1;stroke-width:3.59687"
         id="g1738" />
      <g
         style="fill:#d40000;fill-opacity:1;stroke-width:3.59687"
         id="g1740" />
      <g
         style="fill:#d40000;fill-opacity:1;stroke-width:3.59687"
         id="g1742" />
    </g>
    <g
       transform="matrix(3.0219954,0,0,3.0219954,-1381.4067,27.838961)"
       aria-label="web talkie"
       id="g1808"
       style="font-style:normal;font-variant:normal;font-weight:normal;font-stretch:normal;font-size:20.1525px;line-height:1.25;font-family:'Arial Rounded MT Bold';-inkscape-font-specification:'Arial Rounded MT Bold, Normal';font-variant-ligatures:normal;font-variant-caps:normal;font-variant-numeric:normal;font-variant-east-asian:normal;letter-spacing:-0.994833px;word-spacing:0px;fill:#337180;fill-opacity:1;stroke:#337180;stroke-width:0.253144;stroke-miterlimit:4;stroke-dasharray:none;stroke-opacity:1">
      <g
         id="g1750"
         style="opacity:1;stroke-width:0.253144">
        <path
           style="color:#000000;font-style:normal;font-variant:normal;font-weight:normal;font-stretch:normal;font-size:20.1525px;line-height:1.25;font-family:'Arial Rounded MT Bold';-inkscape-font-specification:'Arial Rounded MT Bold, Normal';font-variant-ligatures:normal;font-variant-position:normal;font-variant-caps:normal;font-variant-numeric:normal;font-variant-alternates:normal;font-variant-east-asian:normal;font-feature-settings:normal;font-variation-settings:normal;text-indent:0;text-align:start;text-decoration:none;text-decoration-line:none;text-decoration-style:solid;text-decoration-color:#000000;letter-spacing:-0.994833px;word-spacing:0px;text-transform:none;writing-mode:lr-tb;direction:ltr;text-orientation:mixed;dominant-baseline:auto;baseline-shift:baseline;text-anchor:start;white-space:normal;shape-padding:0;shape-margin:0;inline-size:0;clip-rule:nonzero;display:inline;overflow:visible;visibility:visible;isolation:auto;mix-blend-mode:normal;color-interpolation:sRGB;color-interpolation-filters:linearRGB;solid-color:#000000;solid-opacity:1;vector-effect:none;fill:#337180;fill-opacity:1;fill-rule:nonzero;stroke:none;stroke-width:0.253144;stroke-linecap:butt;stroke-linejoin:miter;stroke-miterlimit:4;stroke-dasharray:none;stroke-dashoffset:0;stroke-opacity:1;color-rendering:auto;image-rendering:auto;shape-rendering:auto;text-rendering:auto;enable-background:accumulate;stop-color:#000000;stop-opacity:1"
           d="m 428.6188,-2.2693575 1.75154,6.0024537 1.59409,-5.5793299 c 0.17056,-0.5838452 0.2952,-0.9807287 0.37392,-1.1906506 0.0853,-0.2164819 0.23944,-0.4198438 0.46249,-0.6100855 0.2296,-0.1968017 0.5412,-0.2952026 0.93481,-0.2952026 0.40016,0 0.71176,0.098401 0.9348,0.2952026 0.22961,0.1902417 0.39033,0.4001636 0.48217,0.6297657 0.0918,0.2230419 0.21976,0.6133654 0.38376,1.1709704 l 1.5941,5.5793299 1.77121,-6.0024537 c 0.11808,-0.4329639 0.2132,-0.7445666 0.28536,-0.9348083 0.0722,-0.1968018 0.19353,-0.3673633 0.36409,-0.5116846 0.17056,-0.1508813 0.41656,-0.226322 0.738,-0.226322 0.32145,0 0.60025,0.111521 0.83641,0.334563 0.23617,0.223042 0.35425,0.4854443 0.35425,0.787207 0,0.2755225 -0.10168,0.6920862 -0.30505,1.2496912 l -2.19434,6.4354175 c -0.19024,0.5444849 -0.33784,0.9380884 -0.4428,1.1808106 -0.10496,0.2427221 -0.27224,0.4592041 -0.50185,0.6494458 -0.22304,0.1902417 -0.53136,0.2853625 -0.92496,0.2853625 -0.40673,0 -0.72817,-0.1016809 -0.96433,-0.3050427 -0.22961,-0.2033618 -0.40017,-0.452644 -0.51169,-0.7478467 -0.11152,-0.2952026 -0.23288,-0.678966 -0.36408,-1.1512903 l -1.53505,-5.23492678 -1.48586,5.23492678 c -0.1968,0.7281665 -0.41,1.2792115 -0.6396,1.6531348 -0.22961,0.3673633 -0.63305,0.5510449 -1.21033,0.5510449 -0.29521,0 -0.54777,-0.059041 -0.75769,-0.1771216 -0.20336,-0.111521 -0.37392,-0.2722424 -0.51169,-0.4821643 -0.13776,-0.2164819 -0.25912,-0.4690442 -0.36408,-0.7576867 -0.10496,-0.2952027 -0.18696,-0.5280848 -0.246,-0.6986463 l -2.17466,-6.4354175 c -0.21648,-0.6035254 -0.32472,-1.0200891 -0.32472,-1.2496912 0,-0.2886426 0.1148,-0.5477649 0.3444,-0.7773669 0.2296,-0.2296021 0.51168,-0.3444031 0.84625,-0.3444031 0.44608,0 0.74784,0.1279211 0.90529,0.3837634 0.15744,0.2492823 0.32472,0.6789661 0.50184,1.2890515 z"
           id="path1746" />
        <path
           style="color:#000000;font-style:normal;font-variant:normal;font-weight:normal;font-stretch:normal;font-size:20.1525px;line-height:1.25;font-family:'Arial Rounded MT Bold';-inkscape-font-specification:'Arial Rounded MT Bold, Normal';font-variant-ligatures:normal;font-variant-position:normal;font-variant-caps:normal;font-variant-numeric:normal;font-variant-alternates:normal;font-variant-east-asian:normal;font-feature-settings:normal;font-variation-settings:normal;text-indent:0;text-align:start;text-decoration:none;text-decoration-line:none;text-decoration-style:solid;text-decoration-color:#000000;letter-spacing:-0.994833px;word-spacing:0px;text-transform:none;writing-mode:lr-tb;direction:ltr;text-orientation:mixed;dominant-baseline:auto;baseline-shift:baseline;text-anchor:start;white-space:normal;shape-padding:0;shape-margin:0;inline-size:0;clip-rule:nonzero;display:inline;overflow:visible;visibility:visible;isolation:auto;mix-blend-mode:normal;color-interpolation:sRGB;color-interpolation-filters:linearRGB;solid-color:#000000;solid-opacity:1;vector-effect:none;fill:#337180;fill-opacity:1;fill-rule:nonzero;stroke:none;stroke-width:0.253144;stroke-linecap:butt;stroke-linejoin:miter;stroke-miterlimit:4;stroke-dasharray:none;stroke-dashoffset:0;stroke-opacity:1;color-rendering:auto;image-rendering:auto;shape-rendering:auto;text-rendering:auto;enable-background:accumulate;stop-color:#000000;stop-opacity:1"
           d="m 427.21094,-4.3242188 c -0.42207,0 -0.81995,0.1597893 -1.11524,0.4550782 -0.28627,0.2862718 -0.45703,0.658766 -0.45703,1.0488281 0,0.3498153 0.12597,0.7608708 0.34766,1.3789063 l 2.17187,6.4296874 v 0.00195 c 0.0596,0.1723123 0.14288,0.4053899 0.24805,0.7011718 v 0.00195 c 0.11283,0.3102894 0.24687,0.5896616 0.40234,0.8339844 v 0.00195 l 0.002,0.00195 c 0.16729,0.2549156 0.38599,0.4628562 0.64453,0.6054688 5.4e-4,3.041e-4 10e-4,-3.035e-4 0.002,0 8.1e-4,4.445e-4 0.001,0.00151 0.002,0.00195 0.27589,0.1542211 0.59672,0.2246093 0.94141,0.2246093 0.65842,0 1.22724,-0.2409315 1.5332,-0.7304687 l 0.002,-0.00195 v -0.00195 c 0.26117,-0.425345 0.47992,-1.0031952 0.68164,-1.7480468 V 4.87694 l 1.125,-3.95703122 1.16211,3.96289062 c 0.13265,0.477186 0.25562,0.8688684 0.37304,1.1796875 0.13193,0.3492228 0.33987,0.6545474 0.61524,0.8984375 l 0.002,0.00195 0.002,0.00195 c 0.31844,0.2742114 0.74437,0.3984374 1.21485,0.3984374 0.45454,0 0.86251,-0.1154604 1.16992,-0.3769531 h 0.002 c 0.26697,-0.2222161 0.47535,-0.4881495 0.60547,-0.7890625 0.1129,-0.2610863 0.2615,-0.6585758 0.45313,-1.2070312 l 2.1914,-6.4296875 c 0.21032,-0.576657 0.32813,-1.0112275 0.32813,-1.3808594 0,-0.4015472 -0.17389,-0.7822871 -0.47266,-1.0644531 -0.29914,-0.2825253 -0.68969,-0.4394532 -1.09961,-0.4394532 -0.37971,0 -0.72873,0.092505 -0.98828,0.3203126 -0.21248,0.1809682 -0.37581,0.4075819 -0.4707,0.6640624 -1.5e-4,3.966e-4 1.5e-4,0.00156 0,0.00195 -3.2e-4,8.584e-4 -0.002,0.00109 -0.002,0.00195 -0.0815,0.2154562 -0.17588,0.5303309 -0.29492,0.9667969 l -1.39648,4.7304687 -1.23242,-4.3144531 v -0.00195 c -0.16556,-0.5629029 -0.29439,-0.9543409 -0.39844,-1.2070313 -0.11842,-0.2946716 -0.32293,-0.5526033 -0.58789,-0.7734375 -0.30768,-0.2690406 -0.72106,-0.3886719 -1.18164,-0.3886719 -0.45736,0 -0.87199,0.11963 -1.1836,0.3867188 -0.25923,0.2211089 -0.45735,0.4730288 -0.57031,0.7597656 l -0.002,0.00391 v 0.00195 c -0.0878,0.2340434 -0.21127,0.6315452 -0.38281,1.21875 l -1.23047,4.3046875 -1.38086,-4.7285156 c -0.18169,-0.6258315 -0.34879,-1.0711238 -0.54688,-1.3847657 -0.24263,-0.3904814 -0.71098,-0.5625 -1.22851,-0.5625 z m 0,0.7636719 c 0.37295,0 0.50714,0.084603 0.58008,0.203125 l 0.002,0.00195 v 0.00195 c 0.11679,0.1849227 0.28643,0.5970669 0.45898,1.1914062 l 2.12305,7.2734375 1.95703,-6.8496093 v -0.00195 c 0.16893,-0.5781543 0.2956,-0.9742794 0.36524,-1.1601562 1e-4,-2.848e-4 -1.1e-4,-0.00167 0,-0.00195 0.0582,-0.1446351 0.16696,-0.2956788 0.35156,-0.453125 v -0.00195 c 0.1476,-0.1265146 0.35764,-0.203125 0.6875,-0.203125 0.33745,0 0.54369,0.079455 0.68164,0.2011719 l 0.004,0.00391 0.004,0.00391 c 0.19069,0.1579942 0.30655,0.3151923 0.3711,0.4765625 l 0.002,0.00195 v 0.00195 c 0.0796,0.1933936 0.20865,0.5805054 0.37109,1.1328126 l -0.002,-0.00195 1.95703,6.8457032 2.14453,-7.2695313 0.002,-0.00391 c 0.11662,-0.427602 0.21087,-0.7354287 0.27344,-0.9003906 v -0.00195 l 0.002,-0.00195 c 0.049,-0.1337293 0.12653,-0.2454368 0.25195,-0.3515625 l 0.002,-0.00195 0.004,-0.00391 c 0.0812,-0.071871 0.22278,-0.1308594 0.48437,-0.1308594 0.23298,0 0.40104,0.06691 0.57422,0.2304688 0.17356,0.163918 0.23438,0.3077875 0.23438,0.5097656 0,0.1814131 -0.0868,0.5805876 -0.28321,1.1191406 v 0.00391 l -2.19531,6.4394531 v -0.00391 c -0.18885,0.5405143 -0.33462,0.931892 -0.43164,1.15625 -0.0791,0.1828741 -0.20637,0.3483377 -0.39648,0.5058594 l -0.002,0.00195 -0.002,0.00195 c -0.13852,0.1181486 -0.34381,0.1933593 -0.67578,0.1933593 -0.34212,1e-7 -0.55907,-0.080975 -0.71289,-0.2128906 h -0.002 c -0.1817,-0.1620554 -0.31387,-0.3524279 -0.40429,-0.5917968 -0.10521,-0.2785025 -0.2243,-0.6539444 -0.35352,-1.1191407 v -0.00195 l -1.9082,-6.5097656 -1.84961,6.5117187 v 0.00195 c -0.19112,0.7071419 -0.39873,1.2295863 -0.5957,1.5507813 -0.15325,0.2451893 -0.38863,0.3710938 -0.88477,0.3710937 -0.24421,0 -0.42717,-0.046434 -0.57031,-0.1269531 l -0.002,-0.00195 h -0.002 c -0.14657,-0.080378 -0.26755,-0.1937005 -0.375,-0.3574219 -0.11882,-0.1873456 -0.22793,-0.4115171 -0.32422,-0.6757812 l -0.002,-0.00195 C 429.02102,5.141122 428.94102,4.9103209 428.88281,4.7421875 v -0.00195 l -2.17578,-6.4375 -0.002,-0.00195 c -0.21128,-0.5890153 -0.30078,-1.0117048 -0.30078,-1.1210937 0,-0.1872231 0.0595,-0.3348803 0.23242,-0.5078125 0.16391,-0.1639153 0.32715,-0.2324219 0.57422,-0.2324219 z"
           id="path1748" />
      </g>
      <g
         id="g1756"
         style="opacity:1;stroke-width:0.253144">
        <path
           style="color:#000000;font-style:normal;font-variant:normal;font-weight:normal;font-stretch:normal;font-size:20.1525px;line-height:1.25;font-family:'Arial Rounded MT Bold';-inkscape-font-specification:'Arial Rounded MT Bold, Normal';font-variant-ligatures:normal;font-variant-position:normal;font-variant-caps:normal;font-variant-numeric:normal;font-variant-alternates:normal;font-variant-east-asian:normal;font-feature-settings:normal;font-variation-settings:normal;text-indent:0;text-align:start;text-decoration:none;text-decoration-line:none;text-decoration-style:solid;text-decoration-color:#000000;letter-spacing:-0.994833px;word-spacing:0px;text-transform:none;writing-mode:lr-tb;direction:ltr;text-orientation:mixed;dominant-baseline:auto;baseline-shift:baseline;text-anchor:start;white-space:normal;shape-padding:0;shape-margin:0;inline-size:0;clip-rule:nonzero;display:inline;overflow:visible;visibility:visible;isolation:auto;mix-blend-mode:normal;color-interpolation:sRGB;color-interpolation-filters:linearRGB;solid-color:#000000;solid-opacity:1;vector-effect:none;fill:#337180;fill-opacity:1;fill-rule:nonzero;stroke:none;stroke-width:0.253144;stroke-linecap:butt;stroke-linejoin:miter;stroke-miterlimit:4;stroke-dasharray:none;stroke-dashoffset:0;stroke-opacity:1;color-rendering:auto;image-rendering:auto;shape-rendering:auto;text-rendering:auto;enable-background:accumulate;stop-color:#000000;stop-opacity:1"
           d="m 449.57228,2.1783623 h -5.2546 c 0.007,0.6100855 0.12803,1.1480103 0.36408,1.6137744 0.24272,0.4657642 0.56088,0.8167273 0.95449,1.0528894 0.40016,0.2361621 0.83968,0.3542432 1.31857,0.3542432 0.32144,0 0.61336,-0.03608 0.87577,-0.108241 0.26896,-0.078721 0.52808,-0.1968017 0.77736,-0.3542431 0.24929,-0.1640015 0.47889,-0.337843 0.68881,-0.5215247 0.20992,-0.1836817 0.48216,-0.4329639 0.81673,-0.7478467 0.13776,-0.1180811 0.33456,-0.1771216 0.5904,-0.1771216 0.27553,0 0.49857,0.075441 0.66913,0.2263221 0.17056,0.1508813 0.25584,0.3640832 0.25584,0.6396057 0,0.2427221 -0.0951,0.5280847 -0.28536,0.8560876 -0.19024,0.3214429 -0.47888,0.6330457 -0.86593,0.9348084 -0.38048,0.2952026 -0.86264,0.5412048 -1.44649,0.7380066 -0.57729,0.1968017 -1.24313,0.2952026 -1.99754,0.2952026 -1.72529,0 -3.06683,-0.4920044 -4.0246,-1.4760132 -0.95777,-0.9840088 -1.43665,-2.3189807 -1.43665,-4.0049158 0,-0.79376708 0.11808,-1.52849364 0.35424,-2.20417968 0.23617,-0.68224612 0.58057,-1.26609132 1.03321,-1.75153562 0.45265,-0.4854443 1.01025,-0.8560877 1.67282,-1.11193 0.66257,-0.2624023 1.39729,-0.3936035 2.20418,-0.3936035 1.04961,0 1.94833,0.223042 2.69618,0.669126 0.75441,0.4395239 1.31857,1.010249 1.6925,1.7121753 0.37392,0.70192627 0.56088,1.41697266 0.56088,2.14513917 0,0.67568603 -0.19352,1.11520993 -0.58056,1.31857183 -0.38705,0.1968017 -0.93153,0.2952026 -1.63346,0.2952026 z m -5.2546,-1.52521364 h 4.87084 c -0.0656,-0.91840821 -0.31488,-1.60393433 -0.74785,-2.05657836 -0.4264,-0.4592041 -0.99056,-0.6888062 -1.69249,-0.6888062 -0.66913,0 -1.22017,0.2328821 -1.65314,0.6986463 -0.4264,0.45920408 -0.68552,1.14145017 -0.77736,2.04673826 z"
           id="path1752" />
        <path
           style="color:#000000;font-style:normal;font-variant:normal;font-weight:normal;font-stretch:normal;font-size:20.1525px;line-height:1.25;font-family:'Arial Rounded MT Bold';-inkscape-font-specification:'Arial Rounded MT Bold, Normal';font-variant-ligatures:normal;font-variant-position:normal;font-variant-caps:normal;font-variant-numeric:normal;font-variant-alternates:normal;font-variant-east-asian:normal;font-feature-settings:normal;font-variation-settings:normal;text-indent:0;text-align:start;text-decoration:none;text-decoration-line:none;text-decoration-style:solid;text-decoration-color:#000000;letter-spacing:-0.994833px;word-spacing:0px;text-transform:none;writing-mode:lr-tb;direction:ltr;text-orientation:mixed;dominant-baseline:auto;baseline-shift:baseline;text-anchor:start;white-space:normal;shape-padding:0;shape-margin:0;inline-size:0;clip-rule:nonzero;display:inline;overflow:visible;visibility:visible;isolation:auto;mix-blend-mode:normal;color-interpolation:sRGB;color-interpolation-filters:linearRGB;solid-color:#000000;solid-opacity:1;vector-effect:none;fill:#337180;fill-opacity:1;fill-rule:nonzero;stroke:none;stroke-width:0.253144;stroke-linecap:butt;stroke-linejoin:miter;stroke-miterlimit:4;stroke-dasharray:none;stroke-dashoffset:0;stroke-opacity:1;color-rendering:auto;image-rendering:auto;shape-rendering:auto;text-rendering:auto;enable-background:accumulate;stop-color:#000000;stop-opacity:1"
           d="m 446.83594,-4.34375 c -0.84835,0 -1.63176,0.1379466 -2.34375,0.4199219 -0.70997,0.2745631 -1.31984,0.6786749 -1.8125,1.2070312 -0.49097,0.5265448 -0.86353,1.1595904 -1.11524,1.88671878 h 0.002 c -0.2516,0.71972515 -0.377,1.49837749 -0.377,2.33007812 0,1.7583668 0.511,3.2092338 1.54493,4.2714844 1.03784,1.0662701 2.50081,1.5917968 4.29882,1.5917968 0.78696,10e-8 1.49411,-0.1035758 2.11914,-0.3164062 0.61487,-0.2072592 1.13773,-0.468822 1.56055,-0.796875 V 6.24805 c 0.41502,-0.3235713 0.73756,-0.6668755 0.95899,-1.0410157 l 0.002,-0.00195 c 0.21078,-0.3634242 0.33789,-0.7061744 0.33789,-1.0488281 0,-0.3544503 -0.12767,-0.6983433 -0.38477,-0.9257812 -0.24711,-0.2186063 -0.57848,-0.3222657 -0.92383,-0.3222657 -0.31468,0 -0.61129,0.075307 -0.83789,0.2695313 l -0.008,0.00586 -0.006,0.00586 c -0.33252,0.3129593 -0.60245,0.5596136 -0.80664,0.7382813 -0.19421,0.1699356 -0.40732,0.3324696 -0.64062,0.4863281 -5.3e-4,3.314e-4 -10e-4,-3.309e-4 -0.002,0 -0.002,0.00105 -0.002,0.00286 -0.004,0.00391 -0.21733,0.1365275 -0.44057,0.2369726 -0.66992,0.3046874 -5.6e-4,1.533e-4 -10e-4,-1.528e-4 -0.002,0 -0.22351,0.061278 -0.47939,0.09375 -0.77148,0.09375 -0.41448,0 -0.77954,-0.09811 -1.1211,-0.2988281 l -0.002,-0.00195 c -0.32607,-0.1962251 -0.59367,-0.4855967 -0.80859,-0.8964844 v -0.00195 c -4.9e-4,-9.395e-4 -10e-4,-0.00101 -0.002,-0.00195 -0.15011,-0.2972663 -0.19159,-0.6772856 -0.23632,-1.0546875 h 4.78711 c 0.73767,0 1.33632,-0.096794 1.80664,-0.3359375 l 0.002,-0.00195 h 0.002 c 0.54146,-0.284495 0.78516,-0.9094837 0.78516,-1.65820308 0,-0.79363889 -0.20575,-1.57385262 -0.60547,-2.32421872 -0.40811,-0.7660858 -1.03,-1.3912253 -1.83594,-1.8613282 -0.81514,-0.4857885 -1.78753,-0.7226562 -2.89062,-0.7226562 z m 0,0.7636719 c 0.99542,0 1.82172,0.2094813 2.50195,0.6152343 v 0.00195 h 0.002 c 0.70163,0.4087763 1.20952,0.9255426 1.54883,1.5625 0.34812,0.65348636 0.51563,1.30214961 0.51563,1.96484372 0,0.60160678 -0.14504,0.85603808 -0.37696,0.97851568 -4e-4,2.129e-4 4.1e-4,0.00174 0,0.00195 -0.30405,0.1533697 -0.79164,0.25 -1.45507,0.25 h -5.64063 l 0.004,0.3867187 c 0.007,0.6583453 0.13845,1.2586651 0.40429,1.7832032 l 0.002,0.00195 v 0.00195 c 0.26963,0.5174132 0.63866,0.9296858 1.09765,1.2050781 h 0.002 c 0.45767,0.2701077 0.97191,0.4082031 1.51367,0.4082031 0.35006,0 0.67565,-0.040299 0.97656,-0.1230468 h 0.004 0.002 c 0.30436,-0.089083 0.59754,-0.2231997 0.875,-0.3984375 l 0.002,-0.00195 0.004,-0.00195 c 0.26288,-0.1729436 0.50654,-0.3567917 0.73047,-0.5527344 0.21246,-0.1859087 0.48461,-0.4358616 0.81445,-0.7460937 0.0489,-0.041938 0.14285,-0.085937 0.33984,-0.085937 0.20571,0 0.32202,0.047703 0.41602,0.1308594 0.084,0.074325 0.12695,0.156921 0.12695,0.3535156 0,0.1427906 -0.0647,0.3714808 -0.23437,0.6640625 -0.15913,0.2681405 -0.41133,0.5449483 -0.76953,0.8242187 -0.33814,0.2623523 -0.78116,0.4913901 -1.33399,0.6777344 -0.52912,0.1803817 -1.15385,0.2753906 -1.875,0.2753906 -1.65257,10e-8 -2.87229,-0.4576275 -3.75,-1.359375 C 442.40159,4.3325142 441.95508,3.1135033 441.95508,1.5 c 0,-0.75583353 0.11126,-1.44647807 0.33203,-2.078125 v -0.001953 c 0.22063,-0.6373638 0.53881,-1.1708905 0.95312,-1.6152344 0.41203,-0.4418752 0.91527,-0.7785227 1.5293,-1.015625 l 0.002,-0.00195 h 0.002 c 0.61314,-0.2428294 1.29707,-0.3671875 2.0625,-0.3671875 z m -0.0879,1.1054687 c -0.75788,0 -1.43373,0.2825803 -1.9336,0.8203125 -0.50236,0.5410143 -0.77977,1.31156574 -0.87695,2.26953128 l -0.043,0.41992182 h 0.42383 5.28125 L 449.57031,0.625 c -0.0695,-0.9726048 -0.33698,-1.7520221 -0.85156,-2.2910156 -0.49748,-0.5346325 -1.1863,-0.8085938 -1.9707,-0.8085938 z m 0,0.765625 c 0.61851,0 1.05692,0.1838935 1.41211,0.5664063 l 0.002,0.00195 0.002,0.00195 c 0.27166,0.28400326 0.39329,0.83398205 0.49805,1.41015628 h -3.80859 c 0.11928,-0.56664891 0.25173,-1.11379253 0.52148,-1.40429688 0.36607,-0.3937961 0.79267,-0.5761719 1.37305,-0.5761719 z"
           id="path1754" />
      </g>
      <g
         id="g1762"
         style="opacity:1;stroke-width:0.253144">
        <path
           style="color:#000000;font-style:normal;font-variant:normal;font-weight:normal;font-stretch:normal;font-size:20.1525px;line-height:1.25;font-family:'Arial Rounded MT Bold';-inkscape-font-specification:'Arial Rounded MT Bold, Normal';font-variant-ligatures:normal;font-variant-position:normal;font-variant-caps:normal;font-variant-numeric:normal;font-variant-alternates:normal;font-variant-east-asian:normal;font-feature-settings:normal;font-variation-settings:normal;text-indent:0;text-align:start;text-decoration:none;text-decoration-line:none;text-decoration-style:solid;text-decoration-color:#000000;letter-spacing:-0.994833px;word-spacing:0px;text-transform:none;writing-mode:lr-tb;direction:ltr;text-orientation:mixed;dominant-baseline:auto;baseline-shift:baseline;text-anchor:start;white-space:normal;shape-padding:0;shape-margin:0;inline-size:0;clip-rule:nonzero;display:inline;overflow:visible;visibility:visible;isolation:auto;mix-blend-mode:normal;color-interpolation:sRGB;color-interpolation-filters:linearRGB;solid-color:#000000;solid-opacity:1;vector-effect:none;fill:#337180;fill-opacity:1;fill-rule:nonzero;stroke:none;stroke-width:0.253144;stroke-linecap:butt;stroke-linejoin:miter;stroke-miterlimit:4;stroke-dasharray:none;stroke-dashoffset:0;stroke-opacity:1;color-rendering:auto;image-rendering:auto;shape-rendering:auto;text-rendering:auto;enable-background:accumulate;stop-color:#000000;stop-opacity:1"
           d="m 455.24903,-6.4021944 v 4.1033167 c 0.50513,-0.5248047 1.02009,-0.9249683 1.54489,-1.2004908 0.52481,-0.2820825 1.17425,-0.4231237 1.94834,-0.4231237 0.89217,0 1.67281,0.2132019 2.34194,0.6396057 0.67569,0.4198437 1.19721,1.0332092 1.56458,1.8400964 0.37392,0.80032717 0.56088,1.75153567 0.56088,2.8536255 0,0.8134473 -0.10496,1.561294 -0.31488,2.2435401 -0.20336,0.6756861 -0.50184,1.2628113 -0.89545,1.7613757 -0.3936,0.4985645 -0.87248,0.8856079 -1.43665,1.1611304 -0.55761,0.2689624 -1.17425,0.4034436 -1.84994,0.4034436 -0.41328,0 -0.8036,-0.0492 -1.17097,-0.1476013 -0.3608,-0.098401 -0.66912,-0.226322 -0.92497,-0.3837634 -0.25584,-0.1640015 -0.4756,-0.331283 -0.65928,-0.5018445 -0.17713,-0.1705615 -0.41329,-0.4264038 -0.70849,-0.7675269 v 0.2656824 c 0,0.5051245 -0.12136,0.888888 -0.36408,1.1512903 -0.24273,0.2558423 -0.55105,0.3837634 -0.92497,0.3837634 -0.38049,0 -0.68553,-0.1279211 -0.91513,-0.3837634 -0.22304,-0.2624023 -0.33456,-0.6461658 -0.33456,-1.1512903 V -6.2841134 c 0,-0.5444849 0.10824,-0.9544885 0.32472,-1.2300109 0.22304,-0.2820825 0.53136,-0.4231238 0.92497,-0.4231238 0.41328,0 0.73144,0.1344812 0.95449,0.4034436 0.22304,0.2624023 0.33456,0.6396057 0.33456,1.1316101 z m 0.12792,7.9803113 c 0,1.0692896 0.24272,1.892577 0.72817,2.4698621 0.492,0.5707251 1.13489,0.8560877 1.92866,0.8560877 0.67568,0 1.25624,-0.2919226 1.74169,-0.8757679 0.49201,-0.5904053 0.73801,-1.4333728 0.73801,-2.5289026 0,-0.70848631 -0.10168,-1.31857176 -0.30505,-1.83025633 -0.20336,-0.51168458 -0.492,-0.90528807 -0.86592,-1.18081057 -0.37393,-0.2820825 -0.81017,-0.4231238 -1.30873,-0.4231238 -0.51169,0 -0.96761,0.1410413 -1.36778,0.4231238 -0.40016,0.2755225 -0.71504,0.67896608 -0.94465,1.21033083 -0.2296,0.52480469 -0.3444,1.15129028 -0.3444,1.87945677 z"
           id="path1758" />
        <path
           style="color:#000000;font-style:normal;font-variant:normal;font-weight:normal;font-stretch:normal;font-size:20.1525px;line-height:1.25;font-family:'Arial Rounded MT Bold';-inkscape-font-specification:'Arial Rounded MT Bold, Normal';font-variant-ligatures:normal;font-variant-position:normal;font-variant-caps:normal;font-variant-numeric:normal;font-variant-alternates:normal;font-variant-east-asian:normal;font-feature-settings:normal;font-variation-settings:normal;text-indent:0;text-align:start;text-decoration:none;text-decoration-line:none;text-decoration-style:solid;text-decoration-color:#000000;letter-spacing:-0.994833px;word-spacing:0px;text-transform:none;writing-mode:lr-tb;direction:ltr;text-orientation:mixed;dominant-baseline:auto;baseline-shift:baseline;text-anchor:start;white-space:normal;shape-padding:0;shape-margin:0;inline-size:0;clip-rule:nonzero;display:inline;overflow:visible;visibility:visible;isolation:auto;mix-blend-mode:normal;color-interpolation:sRGB;color-interpolation-filters:linearRGB;solid-color:#000000;solid-opacity:1;vector-effect:none;fill:#337180;fill-opacity:1;fill-rule:nonzero;stroke:none;stroke-width:0.253144;stroke-linecap:butt;stroke-linejoin:miter;stroke-miterlimit:4;stroke-dasharray:none;stroke-dashoffset:0;stroke-opacity:1;color-rendering:auto;image-rendering:auto;shape-rendering:auto;text-rendering:auto;enable-background:accumulate;stop-color:#000000;stop-opacity:1"
           d="m 453.96094,-8.3203125 c -0.48498,0 -0.93563,0.2004072 -1.22656,0.5683594 V -7.75 c -0.29211,0.3717721 -0.40626,0.8716197 -0.40626,1.4667969 V 5.4453125 c 0,0.5614227 0.12431,1.0437521 0.42579,1.3984375 l 0.002,0.00391 0.004,0.00391 c 0.29975,0.3340096 0.73495,0.5117188 1.20117,0.5117187 0.46116,1e-7 0.89094,-0.1769177 1.20117,-0.5039062 l 0.002,-0.00195 0.002,-0.00195 c 0.20437,-0.2209422 0.22156,-0.5698362 0.29101,-0.8847657 0.0715,0.07483 0.17304,0.1928858 0.23438,0.2519531 l 0.004,0.00195 0.002,0.00195 c 0.20377,0.1892204 0.44134,0.3708525 0.71289,0.5449219 l 0.004,0.00195 0.002,0.00195 c 0.2939,0.1808612 0.63677,0.3197936 1.02539,0.4257813 l 0.002,0.00195 c 0.40199,0.1076759 0.82589,0.1601563 1.26953,0.1601562 0.72644,0 1.40357,-0.1461781 2.01563,-0.4414062 h 0.002 v -0.00195 c 0.6144,-0.3000533 1.14092,-0.726149 1.56836,-1.2675781 0.42495,-0.5382683 0.74544,-1.1705444 0.96094,-1.8847657 0.22248,-0.723086 0.33203,-1.5110717 0.33203,-2.3574219 0,-1.14392043 -0.1943,-2.15109545 -0.59571,-3.0117187 -0.39323,-0.8637017 -0.96751,-1.542514 -1.70898,-2.0039063 -0.73376,-0.4671386 -1.5925,-0.6992187 -2.54492,-0.6992187 -0.82055,0 -1.53502,0.1495377 -2.12891,0.46875 -0.34004,0.1787453 -0.65751,0.4925616 -0.98242,0.7617187 v -3.328125 c 0,-0.5490929 -0.12717,-1.0247975 -0.42578,-1.3769531 -0.29721,-0.3560513 -0.74948,-0.5410156 -1.24414,-0.5410156 z m 0,0.765625 c 0.3303,0 0.50925,0.086017 0.6582,0.265625 l 0.002,0.00195 0.002,0.00195 c 0.14663,0.1725162 0.24414,0.4486075 0.24414,0.8828124 v 5.0527344 l 0.6582,-0.6835937 c 0.48242,-0.5012159 0.96624,-0.8744141 1.44727,-1.1269531 v -0.00195 h 0.002 c 0.45573,-0.2449526 1.03995,-0.3769531 1.76758,-0.3769531 0.83123,0 1.53256,0.1931261 2.13672,0.578125 l 0.002,0.00195 0.002,0.00195 c 0.60878,0.3782703 1.07688,0.9227053 1.41797,1.671875 v 0.00195 l 0.002,0.00195 c 0.34542,0.73932465 0.52539,1.63257497 0.52539,2.6914062 0,0.7805444 -0.10147,1.4894532 -0.29882,2.1308594 V 3.54295 3.5449 c -0.19122,0.6353332 -0.4687,1.1770162 -0.83008,1.6347656 -0.35976,0.4556997 -0.79075,0.8017427 -1.30469,1.0527344 -0.50271,0.2421624 -1.0574,0.3652344 -1.68164,0.3652343 -0.38224,0 -0.73808,-0.045956 -1.07031,-0.1347656 h -0.002 c -0.33139,-0.090547 -0.60512,-0.206438 -0.82226,-0.3398437 h -0.002 c -0.23721,-0.1525152 -0.43559,-0.3065344 -0.59766,-0.4570313 -0.16167,-0.156046 -0.39062,-0.4022955 -0.67969,-0.7363281 l -0.67187,-0.7773437 v 1.2929687 c 0,0.4438589 -0.10403,0.7180377 -0.26367,0.890625 -0.17427,0.1822451 -0.35769,0.2617188 -0.64258,0.2617187 -0.29287,10e-8 -0.46831,-0.07862 -0.62696,-0.2539062 -0.14304,-0.1704993 -0.24023,-0.4525669 -0.24023,-0.8984375 V -6.2832031 c 0,-0.4937926 0.10133,-0.814868 0.24219,-0.9941407 0.15514,-0.1962129 0.32277,-0.2773437 0.625,-0.2773437 z m 4.07226,5.2382813 c -0.58046,0 -1.12185,0.1655895 -1.58398,0.4902343 -4.1e-4,2.827e-4 4.1e-4,0.00167 0,0.00195 -0.46602,0.3212552 -0.8262,0.7880672 -1.07813,1.3710938 -0.25515,0.58395513 -0.37695,1.26359475 -0.37695,2.03125 0,1.1271733 0.25804,2.050476 0.81836,2.7167969 l 0.002,0.00195 c 0.55843,0.647776 1.33331,0.9902344 2.21875,0.9902344 0.78535,0 1.49407,-0.3635251 2.03516,-1.0136719 0.56649,-0.6797896 0.82812,-1.620647 0.82812,-2.7734375 0,-0.74508441 -0.10628,-1.40466306 -0.33203,-1.97265625 -0.2238,-0.56311055 -0.55556,-1.02092035 -0.99218,-1.34374995 -0.43918,-0.3313035 -0.96837,-0.5000001 -1.53907,-0.5 z m 0,0.7636718 c 0.42642,0 0.76945,0.1128415 1.07813,0.3457032 l 0.002,0.00195 0.002,0.00195 c 0.30955,0.22808744 0.55594,0.5548639 0.73829,1.01367188 0.18098,0.45537595 0.27734,1.0175649 0.27734,1.68945312 0,1.0382691 -0.23092,1.7821822 -0.64844,2.2832031 h -0.002 c -0.42967,0.5167627 -0.88176,0.7382813 -1.44727,0.7382813 -0.70039,0 -1.2098,-0.2295141 -1.63476,-0.7207032 -0.40995,-0.4882355 -0.63867,-1.2120707 -0.63867,-2.2226562 0,-0.68796414 0.10893,-1.26127321 0.3125,-1.7265625 v -0.001953 c 0.20706,-0.47918947 0.47684,-0.81710851 0.81054,-1.046875 h 0.002 l 0.002,-0.00195 c 0.33741,-0.2378487 0.70508,-0.3535156 1.14648,-0.3535156 z"
           id="path1760" />
      </g>
      <g
         id="g1768"
         style="opacity:1;stroke-width:0.253144">
        <path
           style="color:#000000;font-style:normal;font-variant:normal;font-weight:normal;font-stretch:normal;font-size:20.1525px;line-height:1.25;font-family:'Arial Rounded MT Bold';-inkscape-font-specification:'Arial Rounded MT Bold, Normal';font-variant-ligatures:normal;font-variant-position:normal;font-variant-caps:normal;font-variant-numeric:normal;font-variant-alternates:normal;font-variant-east-asian:normal;font-feature-settings:normal;font-variation-settings:normal;text-indent:0;text-align:start;text-decoration:none;text-decoration-line:none;text-decoration-style:solid;text-decoration-color:#000000;letter-spacing:-0.994833px;word-spacing:0px;text-transform:none;writing-mode:lr-tb;direction:ltr;text-orientation:mixed;dominant-baseline:auto;baseline-shift:baseline;text-anchor:start;white-space:normal;shape-padding:0;shape-margin:0;inline-size:0;clip-rule:nonzero;display:inline;overflow:visible;visibility:visible;isolation:auto;mix-blend-mode:normal;color-interpolation:sRGB;color-interpolation-filters:linearRGB;solid-color:#000000;solid-opacity:1;vector-effect:none;fill:#337180;fill-opacity:1;fill-rule:nonzero;stroke:none;stroke-width:0.253144;stroke-linecap:butt;stroke-linejoin:miter;stroke-miterlimit:4;stroke-dasharray:none;stroke-dashoffset:0;stroke-opacity:1;color-rendering:auto;image-rendering:auto;shape-rendering:auto;text-rendering:auto;enable-background:accumulate;stop-color:#000000;stop-opacity:1"
           d="m 468.57546,-3.7060103 h 0.2952 v -1.6137744 c 0,-0.4329639 0.01,-0.7708069 0.0295,-1.0135291 0.0263,-0.2492822 0.0919,-0.4624841 0.1968,-0.6396057 0.10497,-0.1836817 0.25585,-0.331283 0.45265,-0.442804 0.1968,-0.1180811 0.41656,-0.1771216 0.65928,-0.1771216 0.34113,0 0.64945,0.1279212 0.92497,0.3837635 0.18368,0.1705615 0.29848,0.3804834 0.3444,0.6297656 0.0525,0.2427222 0.0787,0.5904053 0.0787,1.0430493 v 1.8302564 h 0.984 c 0.38049,0 0.66913,0.091841 0.86593,0.2755225 0.20336,0.1771215 0.30504,0.4067236 0.30504,0.6888061 0,0.3608033 -0.14432,0.6133655 -0.43296,0.7576868 -0.28208,0.1443213 -0.6888,0.2164819 -1.22017,0.2164819 h -0.50184 v 4.9397242 c 0,0.4198437 0.0131,0.7445666 0.0394,0.9741687 0.0328,0.223042 0.11152,0.4067236 0.23616,0.5510449 0.1312,0.1377613 0.34112,0.2066419 0.62976,0.2066419 0.15745,0 0.37065,-0.02624 0.63961,-0.078721 0.26896,-0.059041 0.47888,-0.088561 0.62977,-0.088561 0.21648,0 0.41,0.088561 0.58056,0.2656823 0.17712,0.1705615 0.26568,0.3837635 0.26568,0.6396058 0,0.4329639 -0.23616,0.7642468 -0.70848,0.9938488 -0.47233,0.2296021 -1.15129,0.3444031 -2.0369,0.3444031 -0.83969,0 -1.47601,-0.1410413 -1.90898,-0.4231238 -0.43296,-0.2820825 -0.71832,-0.6724059 -0.85609,-1.1709704 -0.1312,-0.4985645 -0.1968,-1.1644104 -0.1968,-1.9975379 V -1.767513 h -0.35424 c -0.38705,0 -0.68225,-0.091841 -0.88561,-0.2755224 -0.20336,-0.1836817 -0.30504,-0.4165638 -0.30504,-0.6986463 0,-0.2820825 0.10496,-0.5116846 0.31488,-0.6888061 0.21648,-0.1836817 0.52808,-0.2755225 0.93481,-0.2755225 z"
           id="path1764" />
        <path
           style="color:#000000;font-style:normal;font-variant:normal;font-weight:normal;font-stretch:normal;font-size:20.1525px;line-height:1.25;font-family:'Arial Rounded MT Bold';-inkscape-font-specification:'Arial Rounded MT Bold, Normal';font-variant-ligatures:normal;font-variant-position:normal;font-variant-caps:normal;font-variant-numeric:normal;font-variant-alternates:normal;font-variant-east-asian:normal;font-feature-settings:normal;font-variation-settings:normal;text-indent:0;text-align:start;text-decoration:none;text-decoration-line:none;text-decoration-style:solid;text-decoration-color:#000000;letter-spacing:-0.994833px;word-spacing:0px;text-transform:none;writing-mode:lr-tb;direction:ltr;text-orientation:mixed;dominant-baseline:auto;baseline-shift:baseline;text-anchor:start;white-space:normal;shape-padding:0;shape-margin:0;inline-size:0;clip-rule:nonzero;display:inline;overflow:visible;visibility:visible;isolation:auto;mix-blend-mode:normal;color-interpolation:sRGB;color-interpolation-filters:linearRGB;solid-color:#000000;solid-opacity:1;vector-effect:none;fill:#337180;fill-opacity:1;fill-rule:nonzero;stroke:none;stroke-width:0.253144;stroke-linecap:butt;stroke-linejoin:miter;stroke-miterlimit:4;stroke-dasharray:none;stroke-dashoffset:0;stroke-opacity:1;color-rendering:auto;image-rendering:auto;shape-rendering:auto;text-rendering:auto;enable-background:accumulate;stop-color:#000000;stop-opacity:1"
           d="m 470.20898,-7.9746094 c -0.30262,0 -0.59457,0.076861 -0.8496,0.2285156 -0.24869,0.1414669 -0.4547,0.3406548 -0.59376,0.5839844 -0.13602,0.2315884 -0.21548,0.4985511 -0.24609,0.7890625 v 0.00391 0.00586 c -0.0211,0.26097 -0.0312,0.6042134 -0.0312,1.0429687 v 1.2597656 c -0.42157,0.014833 -0.81011,0.097899 -1.09375,0.3378907 -0.28641,0.2416605 -0.45117,0.6035033 -0.45117,0.9804687 0,0.3740003 0.156,0.7334561 0.43164,0.9824219 0.28586,0.2581939 0.67875,0.3600385 1.11328,0.3652344 v 4.7832031 c 0,0.853206 0.0644,1.5464287 0.20899,2.0957031 v 0.00195 l 0.002,0.00195 c 0.16023,0.5798661 0.51185,1.0604551 1.01562,1.3886719 0.52773,0.3438185 1.23467,0.4863281 2.11719,0.4863281 0.91866,0 1.64821,-0.1121154 2.20508,-0.3828124 0.55734,-0.2709329 0.92383,-0.7658371 0.92383,-1.3378907 0,-0.3419758 -0.13778,-0.6735847 -0.38086,-0.9101562 -0.22604,-0.2315463 -0.52985,-0.3789063 -0.84766,-0.3789063 -0.20077,0 -0.4293,0.035404 -0.71289,0.097656 -0.24873,0.047974 -0.44369,0.070312 -0.55664,0.070312 -0.22394,0 -0.31177,-0.049741 -0.34766,-0.085937 -0.0672,-0.080994 -0.11481,-0.184727 -0.13867,-0.3417969 -0.0228,-0.2036331 -0.0371,-0.5143185 -0.0371,-0.921875 v -4.5566406 h 0.11914 c 0.56447,0 1.02236,-0.070286 1.39063,-0.2578125 0.40268,-0.2013417 0.64453,-0.6368071 0.64453,-1.0996094 0,-0.3718504 -0.1574,-0.727596 -0.43359,-0.9707031 -0.28625,-0.2636699 -0.68009,-0.375 -1.11914,-0.375 h -0.60157 v -1.4492188 c 0,-0.4625117 -0.0246,-0.8221043 -0.0859,-1.1113281 -1.7e-4,-8.936e-4 -0.002,-0.00106 -0.002,-0.00195 -0.06,-0.3223034 -0.21757,-0.6174871 -0.45703,-0.8398438 -0.3332,-0.3094035 -0.74879,-0.484375 -1.18555,-0.484375 z m 0,0.7636719 c 0.24551,0 0.44623,0.078969 0.66407,0.28125 0.12723,0.1181502 0.19624,0.2447143 0.22851,0.4199219 l 0.002,0.00586 v 0.00586 c 0.0421,0.1947287 0.0703,0.5230722 0.0703,0.9609375 v 2.2128906 h 1.36719 c 0.31893,0 0.49855,0.074044 0.60546,0.1738282 l 0.004,0.00391 0.006,0.00391 c 0.12752,0.1110709 0.17383,0.2102258 0.17383,0.4003906 0,0.2588042 -0.0481,0.3287148 -0.22266,0.4160156 h -0.002 v 0.00195 c -0.19538,0.099963 -0.55014,0.1738282 -1.04688,0.1738282 h -0.88476 V 3.171875 c 0,0.4278205 0.0137,0.7618195 0.043,1.0175781 v 0.00586 l 0.002,0.00586 c 0.0412,0.280292 0.14672,0.5405637 0.32422,0.7460937 l 0.006,0.00781 0.006,0.00586 c 0.22781,0.2392012 0.55871,0.3261719 0.9082,0.3261719 0.19995,0 0.43016,-0.03077 0.71289,-0.085937 l 0.004,-0.00195 h 0.004 c 0.25433,-0.055829 0.44783,-0.080078 0.54883,-0.080078 0.11216,0 0.19021,0.029558 0.30469,0.1484375 l 0.004,0.00586 0.006,0.00391 c 0.10828,0.1042789 0.14843,0.1976604 0.14843,0.3652343 0,0.2938742 -0.10489,0.4601664 -0.49219,0.6484375 -0.38778,0.1885071 -1.01854,0.3066407 -1.87109,0.3066406 -0.79685,0 -1.36101,-0.1409815 -1.69922,-0.3613281 -0.36083,-0.2350868 -0.57968,-0.5323843 -0.69531,-0.9472656 v -0.00195 C 469.32086,4.839332 469.2549,4.2009034 469.2549,3.3886824 v -5.5390625 h -0.73829 c -0.32653,0 -0.51512,-0.073008 -0.6289,-0.1757813 -0.13108,-0.1183975 -0.17774,-0.2258508 -0.17774,-0.4160156 0,-0.1871997 0.0443,-0.2839019 0.17774,-0.3964844 h 0.002 c 0.12637,-0.1072239 0.33836,-0.1855468 0.6875,-0.1855469 h 0.67774 V -5.320302 c 0,-0.4229294 0.009,-0.7483175 0.0273,-0.9726563 0.0217,-0.2058825 0.0726,-0.3629136 0.14453,-0.484375 l 0.002,-0.00391 0.002,-0.00195 c 0.0704,-0.1232267 0.16478,-0.2173352 0.30859,-0.2988281 l 0.004,-0.00391 0.004,-0.00195 c 0.13732,-0.082388 0.2822,-0.1230469 0.46289,-0.1230469 z"
           id="path1766" />
      </g>
      <g
         id="g1774"
         style="opacity:1;stroke-width:0.253144">
        <path
           style="color:#000000;font-style:normal;font-variant:normal;font-weight:normal;font-stretch:normal;font-size:20.1525px;line-height:1.25;font-family:'Arial Rounded MT Bold';-inkscape-font-specification:'Arial Rounded MT Bold, Normal';font-variant-ligatures:normal;font-variant-position:normal;font-variant-caps:normal;font-variant-numeric:normal;font-variant-alternates:normal;font-variant-east-asian:normal;font-feature-settings:normal;font-variation-settings:normal;text-indent:0;text-align:start;text-decoration:none;text-decoration-line:none;text-decoration-style:solid;text-decoration-color:#000000;letter-spacing:-0.994833px;word-spacing:0px;text-transform:none;writing-mode:lr-tb;direction:ltr;text-orientation:mixed;dominant-baseline:auto;baseline-shift:baseline;text-anchor:start;white-space:normal;shape-padding:0;shape-margin:0;inline-size:0;clip-rule:nonzero;display:inline;overflow:visible;visibility:visible;isolation:auto;mix-blend-mode:normal;color-interpolation:sRGB;color-interpolation-filters:linearRGB;solid-color:#000000;solid-opacity:1;vector-effect:none;fill:#337180;fill-opacity:1;fill-rule:nonzero;stroke:none;stroke-width:0.253144;stroke-linecap:butt;stroke-linejoin:miter;stroke-miterlimit:4;stroke-dasharray:none;stroke-dashoffset:0;stroke-opacity:1;color-rendering:auto;image-rendering:auto;shape-rendering:auto;text-rendering:auto;enable-background:accumulate;stop-color:#000000;stop-opacity:1"
           d="m 481.34691,5.4649517 c -0.64945,0.5051245 -1.27921,0.8856079 -1.88929,1.1414502 -0.60353,0.2492822 -1.28249,0.3739233 -2.0369,0.3739233 -0.68881,0 -1.29561,-0.1344812 -1.82042,-0.4034436 -0.51825,-0.2755225 -0.91841,-0.6461658 -1.20049,-1.1119299 -0.28208,-0.4657642 -0.42312,-0.9708887 -0.42312,-1.5153736 0,-0.7347265 0.23288,-1.3612121 0.69864,-1.8794568 0.46577,-0.5182446 1.10537,-0.8659277 1.91882,-1.0430493 0.17056,-0.0393603 0.59368,-0.12792112 1.26937,-0.26568237 0.67569,-0.13776123 1.25297,-0.26240235 1.73186,-0.37392334 0.48544,-0.11808106 1.01024,-0.25912232 1.57441,-0.42312379 -0.0328,-0.70848633 -0.17712,-1.226731 -0.43296,-1.5547339 -0.24929,-0.334563 -0.77081,-0.5018445 -1.56458,-0.5018445 -0.68225,0 -1.19721,0.095121 -1.54489,0.2853626 -0.34112,0.1902417 -0.63632,0.4756042 -0.88561,0.85608762 -0.24272,0.38048341 -0.41656,0.63304567 -0.52152,0.75768678 -0.0984,0.11808105 -0.31488,0.17712158 -0.64945,0.17712158 -0.30176,0 -0.56416,-0.09512085 -0.78721,-0.28536255 -0.21648,-0.19680176 -0.32472,-0.446084 -0.32472,-0.74784673 0,-0.4723242 0.16728,-0.9315283 0.50185,-1.3776123 0.33456,-0.446084 0.85608,-0.8134473 1.56457,-1.1020898 0.70849,-0.2886426 1.59081,-0.4329639 2.64698,-0.4329639 1.18081,0 2.10906,0.1410413 2.78475,0.4231238 0.67569,0.2755225 1.15129,0.7150464 1.42681,1.3185718 0.28208,0.6035254 0.42312,1.40385255 0.42312,2.40098144 0,0.62976564 -0.003,1.16441046 -0.01,1.60393436 0,0.4395239 -0.003,0.9282483 -0.01,1.4661731 0,0.5051245 0.082,1.0332092 0.24601,1.5842541 0.17056,0.5444849 0.25584,0.895448 0.25584,1.0528895 0,0.2755225 -0.1312,0.5280847 -0.3936,0.7576867 -0.25585,0.223042 -0.54777,0.334563 -0.87577,0.334563 -0.27553,0 -0.54777,-0.1279211 -0.81673,-0.3837634 -0.26896,-0.2624023 -0.55432,-0.6396057 -0.85609,-1.1316101 z m -0.17712,-3.8868348 c -0.3936,0.1443213 -0.9676,0.2984827 -1.72201,0.4624842 -0.74785,0.1574414 -1.26609,0.2755224 -1.55474,0.3542431 -0.28864,0.072161 -0.56416,0.219762 -0.82657,0.442804 -0.2624,0.2164819 -0.3936,0.5215247 -0.3936,0.9151282 0,0.4067236 0.15416,0.7544067 0.46249,1.0430493 0.30832,0.2820825 0.71176,0.4231238 1.21033,0.4231238 0.53136,0 1.02008,-0.114801 1.46617,-0.3444031 0.45265,-0.2361621 0.78393,-0.5379248 0.99385,-0.9052881 0.24272,-0.4067236 0.36408,-1.0758496 0.36408,-2.0073779 z"
           id="path1770" />
        <path
           style="color:#000000;font-style:normal;font-variant:normal;font-weight:normal;font-stretch:normal;font-size:20.1525px;line-height:1.25;font-family:'Arial Rounded MT Bold';-inkscape-font-specification:'Arial Rounded MT Bold, Normal';font-variant-ligatures:normal;font-variant-position:normal;font-variant-caps:normal;font-variant-numeric:normal;font-variant-alternates:normal;font-variant-east-asian:normal;font-feature-settings:normal;font-variation-settings:normal;text-indent:0;text-align:start;text-decoration:none;text-decoration-line:none;text-decoration-style:solid;text-decoration-color:#000000;letter-spacing:-0.994833px;word-spacing:0px;text-transform:none;writing-mode:lr-tb;direction:ltr;text-orientation:mixed;dominant-baseline:auto;baseline-shift:baseline;text-anchor:start;white-space:normal;shape-padding:0;shape-margin:0;inline-size:0;clip-rule:nonzero;display:inline;overflow:visible;visibility:visible;isolation:auto;mix-blend-mode:normal;color-interpolation:sRGB;color-interpolation-filters:linearRGB;solid-color:#000000;solid-opacity:1;vector-effect:none;fill:#337180;fill-opacity:1;fill-rule:nonzero;stroke:none;stroke-width:0.253144;stroke-linecap:butt;stroke-linejoin:miter;stroke-miterlimit:4;stroke-dasharray:none;stroke-dashoffset:0;stroke-opacity:1;color-rendering:auto;image-rendering:auto;shape-rendering:auto;text-rendering:auto;enable-background:accumulate;stop-color:#000000;stop-opacity:1"
           d="m 479.17188,-4.34375 c -1.09102,0 -2.02103,0.1472378 -2.79102,0.4609375 -0.75277,0.3066821 -1.338,0.7084775 -1.72656,1.2265625 -0.37345,0.4979239 -0.57813,1.0447842 -0.57813,1.6074219 0,0.39322926 0.16074,0.7689916 0.44922,1.03124997 l 0.006,0.0039063 0.004,0.00390625 c 0.28784,0.24551015 0.65301,0.37695313 1.03515,0.37695313 0.37957,0 0.70847,-0.0325862 0.94336,-0.31445313 0.13431,-0.15949074 0.30462,-0.41027811 0.54883,-0.79296875 0.22089,-0.33714037 0.46991,-0.57374757 0.75,-0.73046867 0.25547,-0.1393615 0.71358,-0.2382813 1.35938,-0.2382813 0.74002,0 1.12474,0.1690663 1.25781,0.3476563 l 0.004,0.00195 0.002,0.00391 c 0.13974,0.1791571 0.21591,0.60162199 0.27539,1.046875 -0.41922,0.11787473 -0.83422,0.23400847 -1.20508,0.32421875 -0.47377,0.11030866 -1.04626,0.23398388 -1.71875,0.37109375 -0.6765,0.13792722 -1.09617,0.22531834 -1.2793,0.26757813 h 0.006 c -0.87439,0.1903926 -1.59776,0.57568607 -2.12305,1.16015617 -0.52583,0.5850846 -0.79687,1.319214 -0.79687,2.1347657 0,0.6105384 0.16222,1.1925877 0.47852,1.7148437 0.31853,0.5259609 0.77592,0.9460431 1.34765,1.25 l 0.004,0.00195 0.002,0.00195 c 0.58525,0.2999412 1.25555,0.4453124 1.99414,0.4453124 0.79654,0 1.52809,-0.1335465 2.1836,-0.4042968 h 0.002 c 0.53994,-0.2264296 1.09151,-0.5920081 1.64648,-0.9921875 0.22979,0.3404958 0.45651,0.6827428 0.6836,0.9042969 h 0.002 l 0.002,0.00195 c 0.31622,0.3007964 0.68616,0.4902343 1.08008,0.4902343 0.4147,0 0.81008,-0.1534409 1.12695,-0.4296874 0.31947,-0.2795322 0.52539,-0.647972 0.5254,-1.0449219 0,-0.2940498 -0.0994,-0.6128478 -0.27149,-1.1621094 l -0.002,-0.00586 C 484.24542,4.2046601 484.1705,3.7161098 484.16992,3.2558594 V 3.25 c 0.007,-0.5345321 0.01,-1.0206584 0.01,-1.4589844 v -0.00586 c 0.007,-0.4413659 0.01,-0.97469789 0.01,-1.60351558 0,-1.03243517 -0.14318,-1.88601072 -0.45898,-2.56250002 -0.31547,-0.6892483 -0.87933,-1.2064933 -1.62695,-1.5117187 h -0.002 c -0.74859,-0.3121721 -1.7192,-0.4511719 -2.92968,-0.4511719 z m 0,0.7636719 c 1.15035,0 2.03608,0.1429661 2.63867,0.3945312 l 0.002,0.00195 c 0.6021,0.2455161 0.98706,0.6069761 1.22266,1.1230469 h 0.002 v 0.00195 c 0.24787,0.5303221 0.38672,1.27917429 0.38672,2.24023442 0,0.62841594 -0.003,1.16090238 -0.01,1.59765628 v 0.00195 0.00391 c 0,0.4375901 -0.003,0.9243035 -0.01,1.4609376 V 3.2480469 3.25 c 0,0.5465219 0.0886,1.1116875 0.26172,1.6933594 l 0.002,0.00391 v 0.00195 c 0.16741,0.5344489 0.23828,0.9201353 0.23828,0.9394531 0,0.154095 -0.0583,0.2890781 -0.26367,0.46875 -0.19425,0.168836 -0.38241,0.2402343 -0.62305,0.2402343 -0.15602,0 -0.32936,-0.067999 -0.54883,-0.2753906 -0.17435,-0.1700976 -0.38576,-0.4786228 -0.59375,-0.7851562 l 0.58399,-0.4550782 h -1.11328 -0.6836 l 0.15625,0.2558594 c -0.51892,0.3750493 -1.02888,0.7129855 -1.50781,0.9140625 -0.55155,0.2278141 -1.1803,0.3457032 -1.89258,0.3457031 -0.63741,0 -1.17704,-0.1225651 -1.64062,-0.359375 l -0.004,-0.00195 c -0.46269,-0.2467883 -0.80392,-0.564371 -1.04883,-0.96875 -0.24786,-0.4092724 -0.36718,-0.8399281 -0.36718,-1.3183593 0,-0.6539014 0.19392,-1.1716422 0.5996,-1.6230469 0.40625,-0.4520191 0.9643,-0.7619307 1.7168,-0.9257813 h 0.002 0.002 c 0.15799,-0.036461 0.58489,-0.1260766 1.25976,-0.2636718 0.67815,-0.13826378 1.25849,-0.2643101 1.74219,-0.37695318 h 0.002 0.002 c 0.49189,-0.11965007 1.02302,-0.26239298 1.59179,-0.42773437 l 0.28907,-0.0839844 -0.0137,-0.30078125 c -0.0347,-0.74914355 -0.18097,-1.3408343 -0.51171,-1.7675781 -0.36583,-0.4888391 -1.0229,-0.6542969 -1.86914,-0.6542969 -0.7178,0 -1.28842,0.091218 -1.72852,0.3320313 l -0.002,0.00195 c -0.40124,0.2237709 -0.74243,0.5575316 -1.01953,0.9804688 l -0.002,0.00195 v 0.00195 c -0.23946,0.37537344 -0.41717,0.62772046 -0.49219,0.71679685 l -0.002,0.001953 c 0.0381,-0.0457048 -0.0659,0.0390625 -0.35547,0.0390625 -0.21828,0 -0.37517,-0.060417 -0.53125,-0.19140625 -0.14057,-0.12956422 -0.19726,-0.2512476 -0.19726,-0.4589843 0,-0.3820107 0.13009,-0.7541935 0.42578,-1.1484376 0.28056,-0.374083 0.73813,-0.7059596 1.40234,-0.9765625 0.64698,-0.2635855 1.48063,-0.40625 2.50196,-0.40625 z m 2.38085,4.6113281 -0.51367,0.1875 c -0.36341,0.1332511 -0.92673,0.2852784 -1.67187,0.4472656 -0.74555,0.1569775 -1.25911,0.2738489 -1.56641,0.3574219 -0.3513,0.087827 -0.68141,0.2677636 -0.98047,0.5214844 -0.34884,0.2889356 -0.52929,0.7293613 -0.52929,1.2070312 0,0.5033781 0.20826,0.9723651 0.58203,1.3222657 l 0.002,0.00195 0.002,0.00195 c 0.38408,0.3513933 0.89805,0.5234375 1.46875,0.5234375 0.58646,0 1.13959,-0.1288354 1.64063,-0.3867187 h 0.002 v -0.00195 c 0.50191,-0.2618624 0.89523,-0.6148507 1.14649,-1.0527344 0.30676,-0.5167907 0.41796,-1.2369435 0.41796,-2.1992187 z m -0.78711,1.0507812 c -0.0162,0.8029185 -0.12402,1.4148505 -0.28906,1.6914063 l -0.002,0.00195 -0.002,0.00391 c -0.16868,0.2951934 -0.43586,0.546104 -0.83789,0.7558593 -0.39068,0.2007435 -0.81348,0.3007813 -1.28907,0.3007813 -0.42459,0 -0.71713,-0.1093352 -0.94922,-0.3203125 -0.24289,-0.2273847 -0.34179,-0.4536027 -0.34179,-0.7636719 0,-0.3086043 0.0812,-0.4750776 0.25586,-0.6191406 l 0.002,-0.00195 0.002,-0.00195 c 0.22519,-0.1914036 0.44674,-0.3069957 0.67188,-0.3632812 h 0.004 l 0.004,-0.00195 c 0.2702,-0.073689 0.78823,-0.1927718 1.5332,-0.3496094 h 0.002 c 0.53291,-0.11585 0.8715,-0.2228194 1.23632,-0.3320313 z"
           id="path1772" />
      </g>
      <g
         id="g1780"
         style="opacity:1;stroke-width:0.253144">
        <path
           style="color:#000000;font-style:normal;font-variant:normal;font-weight:normal;font-stretch:normal;font-size:20.1525px;line-height:1.25;font-family:'Arial Rounded MT Bold';-inkscape-font-specification:'Arial Rounded MT Bold, Normal';font-variant-ligatures:normal;font-variant-position:normal;font-variant-caps:normal;font-variant-numeric:normal;font-variant-alternates:normal;font-variant-east-asian:normal;font-feature-settings:normal;font-variation-settings:normal;text-indent:0;text-align:start;text-decoration:none;text-decoration-line:none;text-decoration-style:solid;text-decoration-color:#000000;letter-spacing:-0.994833px;word-spacing:0px;text-transform:none;writing-mode:lr-tb;direction:ltr;text-orientation:mixed;dominant-baseline:auto;baseline-shift:baseline;text-anchor:start;white-space:normal;shape-padding:0;shape-margin:0;inline-size:0;clip-rule:nonzero;display:inline;overflow:visible;visibility:visible;isolation:auto;mix-blend-mode:normal;color-interpolation:sRGB;color-interpolation-filters:linearRGB;solid-color:#000000;solid-opacity:1;vector-effect:none;fill:#337180;fill-opacity:1;fill-rule:nonzero;stroke:none;stroke-width:0.253144;stroke-linecap:butt;stroke-linejoin:miter;stroke-miterlimit:4;stroke-dasharray:none;stroke-dashoffset:0;stroke-opacity:1;color-rendering:auto;image-rendering:auto;shape-rendering:auto;text-rendering:auto;enable-background:accumulate;stop-color:#000000;stop-opacity:1"
           d="M 485.52796,5.3468706 V -6.3037935 c 0,-0.5379248 0.11808,-0.9446484 0.35425,-1.2201709 0.24272,-0.2755225 0.56744,-0.4132837 0.97416,-0.4132837 0.40673,0 0.73473,0.1377612 0.98401,0.4132837 0.24929,0.2689624 0.37393,0.675686 0.37393,1.2201709 V 5.3468706 c 0,0.5444849 -0.12792,0.9544885 -0.38377,1.230011 -0.24928,0.2689624 -0.574,0.4034436 -0.97417,0.4034436 -0.3936,0 -0.71504,-0.1410413 -0.96432,-0.4231238 -0.24273,-0.2820825 -0.36409,-0.6855261 -0.36409,-1.2103308 z"
           id="path1776" />
        <path
           style="color:#000000;font-style:normal;font-variant:normal;font-weight:normal;font-stretch:normal;font-size:20.1525px;line-height:1.25;font-family:'Arial Rounded MT Bold';-inkscape-font-specification:'Arial Rounded MT Bold, Normal';font-variant-ligatures:normal;font-variant-position:normal;font-variant-caps:normal;font-variant-numeric:normal;font-variant-alternates:normal;font-variant-east-asian:normal;font-feature-settings:normal;font-variation-settings:normal;text-indent:0;text-align:start;text-decoration:none;text-decoration-line:none;text-decoration-style:solid;text-decoration-color:#000000;letter-spacing:-0.994833px;word-spacing:0px;text-transform:none;writing-mode:lr-tb;direction:ltr;text-orientation:mixed;dominant-baseline:auto;baseline-shift:baseline;text-anchor:start;white-space:normal;shape-padding:0;shape-margin:0;inline-size:0;clip-rule:nonzero;display:inline;overflow:visible;visibility:visible;isolation:auto;mix-blend-mode:normal;color-interpolation:sRGB;color-interpolation-filters:linearRGB;solid-color:#000000;solid-opacity:1;vector-effect:none;fill:#337180;fill-opacity:1;fill-rule:nonzero;stroke:none;stroke-width:0.253144;stroke-linecap:butt;stroke-linejoin:miter;stroke-miterlimit:4;stroke-dasharray:none;stroke-dashoffset:0;stroke-opacity:1;color-rendering:auto;image-rendering:auto;shape-rendering:auto;text-rendering:auto;enable-background:accumulate;stop-color:#000000;stop-opacity:1"
           d="m 486.85547,-8.3203125 c -0.49309,0 -0.947,0.1879291 -1.25977,0.5429687 l -0.002,0.00195 -0.002,0.00195 c -0.31622,0.3689105 -0.44727,0.8748485 -0.44727,1.46875 v 11.65235 c 0,0.5837746 0.13781,1.0880045 0.45703,1.4589844 l 0.002,0.00195 0.002,0.00195 c 0.31543,0.356936 0.76502,0.5527344 1.25,0.5527343 0.48586,0 0.93721,-0.18354 1.25586,-0.5273437 0.34047,-0.3675089 0.48633,-0.8846016 0.48633,-1.4882813 V -6.3046875 c 0,-0.602138 -0.14068,-1.1132954 -0.47657,-1.4765625 -0.31865,-0.351378 -0.77317,-0.5390625 -1.26562,-0.5390625 z m 0,0.765625 c 0.32036,0 0.52133,0.088333 0.70117,0.2871094 l 0.002,0.00195 0.002,0.00195 c 0.16181,0.1745829 0.27148,0.4728741 0.27148,0.9589844 V 5.3476562 c 0,0.4845743 -0.11089,0.7852929 -0.28125,0.96875 -0.17991,0.1941211 -0.38084,0.28125 -0.69531,0.28125 -0.30044,0 -0.49167,-0.086425 -0.67383,-0.2910156 -0.16569,-0.1932298 -0.27148,-0.4940263 -0.27148,-0.9589844 V -6.3046875 c 0,-0.4798964 0.10473,-0.784377 0.25976,-0.9667969 8e-5,-9.26e-5 0.002,9.26e-5 0.002,0 0.17235,-0.1950021 0.36402,-0.2832031 0.68359,-0.2832031 z"
           id="path1778" />
      </g>
      <g
         id="g1786"
         style="opacity:1;stroke-width:0.253144">
        <path
           style="color:#000000;font-style:normal;font-variant:normal;font-weight:normal;font-stretch:normal;font-size:20.1525px;line-height:1.25;font-family:'Arial Rounded MT Bold';-inkscape-font-specification:'Arial Rounded MT Bold, Normal';font-variant-ligatures:normal;font-variant-position:normal;font-variant-caps:normal;font-variant-numeric:normal;font-variant-alternates:normal;font-variant-east-asian:normal;font-feature-settings:normal;font-variation-settings:normal;text-indent:0;text-align:start;text-decoration:none;text-decoration-line:none;text-decoration-style:solid;text-decoration-color:#000000;letter-spacing:-0.994833px;word-spacing:0px;text-transform:none;writing-mode:lr-tb;direction:ltr;text-orientation:mixed;dominant-baseline:auto;baseline-shift:baseline;text-anchor:start;white-space:normal;shape-padding:0;shape-margin:0;inline-size:0;clip-rule:nonzero;display:inline;overflow:visible;visibility:visible;isolation:auto;mix-blend-mode:normal;color-interpolation:sRGB;color-interpolation-filters:linearRGB;solid-color:#000000;solid-opacity:1;vector-effect:none;fill:#337180;fill-opacity:1;fill-rule:nonzero;stroke:none;stroke-width:0.253144;stroke-linecap:butt;stroke-linejoin:miter;stroke-miterlimit:4;stroke-dasharray:none;stroke-dashoffset:0;stroke-opacity:1;color-rendering:auto;image-rendering:auto;shape-rendering:auto;text-rendering:auto;enable-background:accumulate;stop-color:#000000;stop-opacity:1"
           d="m 496.69548,5.7503142 -2.37146,-3.8966748 -1.45633,1.3776123 v 2.1352991 c 0,0.5182446 -0.13776,0.9184082 -0.41329,1.2004907 -0.26896,0.2755225 -0.58056,0.4132837 -0.93481,0.4132837 -0.41328,0 -0.738,-0.1377612 -0.97416,-0.4132837 -0.23617,-0.2755225 -0.35425,-0.6822461 -0.35425,-1.2201709 V -6.1069918 c 0,-0.5969653 0.1148,-1.0496094 0.34441,-1.3579321 0.2296,-0.3148828 0.5576,-0.4723242 0.984,-0.4723242 0.41329,0 0.74129,0.1410413 0.98401,0.4231238 0.24273,0.2820825 0.36409,0.6986462 0.36409,1.2496911 v 6.51413826 l 3.0209,-3.16850836 c 0.37393,-0.3936035 0.65929,-0.6625659 0.85609,-0.8068872 0.1968,-0.1443213 0.43624,-0.2164819 0.71833,-0.2164819 0.33456,0 0.61336,0.108241 0.8364,0.3247229 0.22305,0.2099219 0.33457,0.4756042 0.33457,0.7970471 0,0.3936035 -0.36408,0.9184082 -1.09225,1.5744141 l -1.42682,1.30873168 2.75523,4.32963872 c 0.20336,0.3214429 0.34768,0.5674451 0.43296,0.7380066 0.0918,0.1640015 0.13776,0.3214429 0.13776,0.4723242 0,0.4264038 -0.11808,0.7642468 -0.35424,1.0135291 -0.2296,0.2427221 -0.53464,0.3640832 -0.91513,0.3640832 -0.328,0 -0.58056,-0.088561 -0.75768,-0.2656824 -0.17713,-0.1771215 -0.41657,-0.4985644 -0.71833,-0.9643286 z"
           id="path1782" />
        <path
           style="color:#000000;font-style:normal;font-variant:normal;font-weight:normal;font-stretch:normal;font-size:20.1525px;line-height:1.25;font-family:'Arial Rounded MT Bold';-inkscape-font-specification:'Arial Rounded MT Bold, Normal';font-variant-ligatures:normal;font-variant-position:normal;font-variant-caps:normal;font-variant-numeric:normal;font-variant-alternates:normal;font-variant-east-asian:normal;font-feature-settings:normal;font-variation-settings:normal;text-indent:0;text-align:start;text-decoration:none;text-decoration-line:none;text-decoration-style:solid;text-decoration-color:#000000;letter-spacing:-0.994833px;word-spacing:0px;text-transform:none;writing-mode:lr-tb;direction:ltr;text-orientation:mixed;dominant-baseline:auto;baseline-shift:baseline;text-anchor:start;white-space:normal;shape-padding:0;shape-margin:0;inline-size:0;clip-rule:nonzero;display:inline;overflow:visible;visibility:visible;isolation:auto;mix-blend-mode:normal;color-interpolation:sRGB;color-interpolation-filters:linearRGB;solid-color:#000000;solid-opacity:1;vector-effect:none;fill:#337180;fill-opacity:1;fill-rule:nonzero;stroke:none;stroke-width:0.253144;stroke-linecap:butt;stroke-linejoin:miter;stroke-miterlimit:4;stroke-dasharray:none;stroke-dashoffset:0;stroke-opacity:1;color-rendering:auto;image-rendering:auto;shape-rendering:auto;text-rendering:auto;enable-background:accumulate;stop-color:#000000;stop-opacity:1"
           d="m 491.51953,-8.3203125 c -0.51992,0 -0.99492,0.2258355 -1.29101,0.6308594 -10e-5,1.23e-4 -0.002,-1.231e-4 -0.002,0 -0.29852,0.4028141 -0.41797,0.9377102 -0.41797,1.5820312 V 5.3476562 c 0,0.5939015 0.13105,1.0998395 0.44727,1.46875 0.30791,0.3592308 0.76539,0.546875 1.26367,0.546875 0.45341,0 0.88139,-0.1937084 1.20899,-0.5292968 C 493.08586,6.4681393 493.25,5.9532179 493.25,5.3671875 V 3.3964844 l 0.99219,-0.9414063 2.1289,3.4980469 0.004,0.00586 c 0.3083,0.4758572 0.54871,0.8065278 0.76758,1.0253906 0.2606,0.2605999 0.63244,0.3789062 1.0293,0.3789062 0.46182,0 0.89127,-0.1650233 1.19335,-0.484375 0.31105,-0.3283292 0.45899,-0.778372 0.45899,-1.2753906 0,-0.2270606 -0.0706,-0.4497246 -0.18555,-0.65625 -0.0968,-0.1922121 -0.24155,-0.437688 -0.44531,-0.7597656 l -2.58398,-4.06054688 1.1875,-1.08789062 0.002,-0.001953 c 0.75501,-0.6804652 1.21679,-1.2286096 1.21679,-1.8574219 0,-0.4090161 -0.15839,-0.7976329 -0.45117,-1.0742187 -0.29144,-0.2818802 -0.68539,-0.4296876 -1.10156,-0.4296876 -0.34732,0 -0.67823,0.095156 -0.94531,0.2910157 -0.23736,0.1740658 -0.52532,0.4505904 -0.90625,0.8515625 L 493.25,-0.70507812 V -6.2636719 c 0,-0.6072067 -0.13399,-1.1245752 -0.45703,-1.5 -0.31273,-0.3634436 -0.77313,-0.5566406 -1.27344,-0.5566406 z m 0,0.765625 c 0.32626,0 0.52065,0.090294 0.69336,0.2910156 0.16241,0.1887402 0.27149,0.5051168 0.27149,1 v 7.46875 l 3.68164,-3.859375 v -0.00195 c 0.36692,-0.3862349 0.64844,-0.6471419 0.80468,-0.7617188 0.12652,-0.092782 0.27534,-0.1425781 0.49219,-0.1425781 0.25206,0 0.41586,0.066886 0.57031,0.2167969 l 0.002,0.00195 0.002,0.00195 c 0.15209,0.1431421 0.21484,0.2865597 0.21484,0.5195313 0,0.1577285 -0.26689,0.660473 -0.96679,1.2910156 l -1.66602,1.52734377 2.92774,4.59960933 c 0.19993,0.3160267 0.34018,0.5553713 0.41406,0.703125 l 0.004,0.00781 0.004,0.00781 c 0.0674,0.120371 0.0898,0.2138361 0.0898,0.2871094 0,0.3557891 -0.0887,0.5797648 -0.25,0.75 -0.15711,0.1660927 -0.33756,0.2441406 -0.63671,0.2441406 -0.25915,0 -0.39464,-0.060653 -0.48829,-0.1542968 -0.1342,-0.1342011 -0.37046,-0.4433805 -0.66211,-0.8925782 L 494.4043,1.25 492.48438,3.0664062 v 2.3007813 c 0,0.4504588 -0.10903,0.7333207 -0.30274,0.9316406 v 0.00195 c -0.21032,0.2154565 -0.40703,0.296875 -0.66211,0.296875 -0.32828,0 -0.51918,-0.087483 -0.68359,-0.2792968 -0.15612,-0.1821344 -0.26172,-0.488755 -0.26172,-0.9707032 v -11.455075 c 0,-0.5479259 0.1086,-0.9154289 0.26758,-1.1289062 l 0.002,-0.00195 v -0.00195 c 0.16319,-0.2238016 0.34354,-0.3144531 0.67578,-0.3144531 z"
           id="path1784" />
      </g>
      <g
         id="g1800"
         style="opacity:1;stroke-width:0.253144">
        <path
           style="color:#000000;font-style:normal;font-variant:normal;font-weight:normal;font-stretch:normal;font-size:20.1525px;line-height:1.25;font-family:'Arial Rounded MT Bold';-inkscape-font-specification:'Arial Rounded MT Bold, Normal';font-variant-ligatures:normal;font-variant-position:normal;font-variant-caps:normal;font-variant-numeric:normal;font-variant-alternates:normal;font-variant-east-asian:normal;font-feature-settings:normal;font-variation-settings:normal;text-indent:0;text-align:start;text-decoration:none;text-decoration-line:none;text-decoration-style:solid;text-decoration-color:#000000;letter-spacing:-0.994833px;word-spacing:0px;text-transform:none;writing-mode:lr-tb;direction:ltr;text-orientation:mixed;dominant-baseline:auto;baseline-shift:baseline;text-anchor:start;white-space:normal;shape-padding:0;shape-margin:0;inline-size:0;clip-rule:nonzero;display:inline;overflow:visible;visibility:visible;isolation:auto;mix-blend-mode:normal;color-interpolation:sRGB;color-interpolation-filters:linearRGB;solid-color:#000000;solid-opacity:1;vector-effect:none;fill:#337180;fill-opacity:1;fill-rule:nonzero;stroke:none;stroke-width:0.253144;stroke-linecap:butt;stroke-linejoin:miter;stroke-miterlimit:4;stroke-dasharray:none;stroke-dashoffset:0;stroke-opacity:1;color-rendering:auto;image-rendering:auto;shape-rendering:auto;text-rendering:auto;enable-background:accumulate;stop-color:#000000;stop-opacity:1"
           d="m 502.78059,-2.4169588 v 7.7638294 c 0,0.5379248 -0.12792,0.9446484 -0.38376,1.2201709 -0.25585,0.2755225 -0.58057,0.4132837 -0.97417,0.4132837 -0.39361,0 -0.71505,-0.1410413 -0.96433,-0.4231238 -0.24272,-0.2820825 -0.36408,-0.6855261 -0.36408,-1.2103308 v -7.6851087 c 0,-0.5313647 0.12136,-0.9315283 0.36408,-1.2004907 0.24928,-0.2689624 0.57072,-0.4034436 0.96433,-0.4034436 0.3936,0 0.71832,0.1344812 0.97417,0.4034436 0.25584,0.2689624 0.38376,0.6428857 0.38376,1.12177 z m -1.32841,-2.7749048 c -0.37393,0 -0.69537,-0.114801 -0.96433,-0.3444031 -0.2624,-0.229602 -0.3936,-0.5543249 -0.3936,-0.9741687 0,-0.3804834 0.13448,-0.6920862 0.40344,-0.9348083 0.27552,-0.2492823 0.59368,-0.3739234 0.95449,-0.3739234 0.34768,0 0.656,0.111521 0.92497,0.334563 0.26896,0.223042 0.40344,0.5477649 0.40344,0.9741687 0,0.4132837 -0.1312,0.7380066 -0.3936,0.9741687 -0.26241,0.2296021 -0.57401,0.3444031 -0.93481,0.3444031 z"
           id="path1788" />
        <path
           style="color:#000000;font-style:normal;font-variant:normal;font-weight:normal;font-stretch:normal;font-size:20.1525px;line-height:1.25;font-family:'Arial Rounded MT Bold';-inkscape-font-specification:'Arial Rounded MT Bold, Normal';font-variant-ligatures:normal;font-variant-position:normal;font-variant-caps:normal;font-variant-numeric:normal;font-variant-alternates:normal;font-variant-east-asian:normal;font-feature-settings:normal;font-variation-settings:normal;text-indent:0;text-align:start;text-decoration:none;text-decoration-line:none;text-decoration-style:solid;text-decoration-color:#000000;letter-spacing:-0.994833px;word-spacing:0px;text-transform:none;writing-mode:lr-tb;direction:ltr;text-orientation:mixed;dominant-baseline:auto;baseline-shift:baseline;text-anchor:start;white-space:normal;shape-padding:0;shape-margin:0;inline-size:0;clip-rule:nonzero;display:inline;overflow:visible;visibility:visible;isolation:auto;mix-blend-mode:normal;color-interpolation:sRGB;color-interpolation-filters:linearRGB;solid-color:#000000;solid-opacity:1;vector-effect:none;fill:#337180;fill-opacity:1;fill-rule:nonzero;stroke:none;stroke-width:0.253144;stroke-linecap:butt;stroke-linejoin:miter;stroke-miterlimit:4;stroke-dasharray:none;stroke-dashoffset:0;stroke-opacity:1;color-rendering:auto;image-rendering:auto;shape-rendering:auto;text-rendering:auto;enable-background:accumulate;stop-color:#000000;stop-opacity:1"
           d="m 501.42188,-3.5605469 c 0.30647,0 0.50892,0.087165 0.69726,0.2851563 0.17771,0.186823 0.2793,0.4486065 0.2793,0.859375 v 7.7636718 c 0,0.4772851 -0.10987,0.774419 -0.28125,0.9589844 -0.1893,0.2038516 -0.39097,0.2910156 -0.69531,0.2910156 -0.30045,0 -0.49167,-0.086426 -0.67383,-0.2910156 -0.16569,-0.1932291 -0.27149,-0.4940247 -0.27149,-0.9589844 v -7.6855468 c 0,-0.4722185 0.10735,-0.7672886 0.26563,-0.9433594 0.18016,-0.1929121 0.37501,-0.2792969 0.67969,-0.2792969 z"
           id="path1790" />
        <path
           style="color:#000000;font-style:normal;font-variant:normal;font-weight:normal;font-stretch:normal;font-size:20.1525px;line-height:1.25;font-family:'Arial Rounded MT Bold';-inkscape-font-specification:'Arial Rounded MT Bold, Normal';font-variant-ligatures:normal;font-variant-position:normal;font-variant-caps:normal;font-variant-numeric:normal;font-variant-alternates:normal;font-variant-east-asian:normal;font-feature-settings:normal;font-variation-settings:normal;text-indent:0;text-align:start;text-decoration:none;text-decoration-line:none;text-decoration-style:solid;text-decoration-color:#000000;letter-spacing:-0.994833px;word-spacing:0px;text-transform:none;writing-mode:lr-tb;direction:ltr;text-orientation:mixed;dominant-baseline:auto;baseline-shift:baseline;text-anchor:start;white-space:normal;shape-padding:0;shape-margin:0;inline-size:0;clip-rule:nonzero;display:inline;overflow:visible;visibility:visible;isolation:auto;mix-blend-mode:normal;color-interpolation:sRGB;color-interpolation-filters:linearRGB;solid-color:#000000;solid-opacity:1;vector-effect:none;fill:#337180;fill-opacity:1;fill-rule:nonzero;stroke:none;stroke-width:0.253144;stroke-linecap:butt;stroke-linejoin:miter;stroke-miterlimit:4;stroke-dasharray:none;stroke-dashoffset:0;stroke-opacity:1;color-rendering:auto;image-rendering:auto;shape-rendering:auto;text-rendering:auto;enable-background:accumulate;stop-color:#000000;stop-opacity:1"
           d="m 501.42188,-4.3242188 c -0.48074,10e-8 -0.92664,0.1828138 -1.24415,0.5253907 l -0.002,0.00195 -0.002,0.00195 c -0.32666,0.361973 -0.46289,0.8674263 -0.46289,1.4570313 V 5.34765 c 0,0.583773 0.13782,1.0880039 0.45703,1.4589844 l 0.002,0.00195 0.002,0.00195 c 0.31543,0.3569373 0.76501,0.5527343 1.25,0.5527343 0.48285,0 0.93346,-0.1879629 1.25585,-0.5351562 0.3403,-0.3664795 0.48633,-0.8819042 0.48633,-1.4804688 v -7.7636718 c 0,-0.5470001 -0.15626,-1.035617 -0.49023,-1.3867188 -0.32336,-0.3399337 -0.77123,-0.5214843 -1.25195,-0.5214844 z"
           id="path1792" />
        <path
           style="color:#000000;font-style:normal;font-variant:normal;font-weight:normal;font-stretch:normal;font-size:20.1525px;line-height:1.25;font-family:'Arial Rounded MT Bold';-inkscape-font-specification:'Arial Rounded MT Bold, Normal';font-variant-ligatures:normal;font-variant-position:normal;font-variant-caps:normal;font-variant-numeric:normal;font-variant-alternates:normal;font-variant-east-asian:normal;font-feature-settings:normal;font-variation-settings:normal;text-indent:0;text-align:start;text-decoration:none;text-decoration-line:none;text-decoration-style:solid;text-decoration-color:#000000;letter-spacing:-0.994833px;word-spacing:0px;text-transform:none;writing-mode:lr-tb;direction:ltr;text-orientation:mixed;dominant-baseline:auto;baseline-shift:baseline;text-anchor:start;white-space:normal;shape-padding:0;shape-margin:0;inline-size:0;clip-rule:nonzero;display:inline;overflow:visible;visibility:visible;isolation:auto;mix-blend-mode:normal;color-interpolation:sRGB;color-interpolation-filters:linearRGB;solid-color:#000000;solid-opacity:1;vector-effect:none;fill:#337180;fill-opacity:1;fill-rule:nonzero;stroke:none;stroke-width:0.253144;stroke-linecap:butt;stroke-linejoin:miter;stroke-miterlimit:4;stroke-dasharray:none;stroke-dashoffset:0;stroke-opacity:1;color-rendering:auto;image-rendering:auto;shape-rendering:auto;text-rendering:auto;enable-background:accumulate;stop-color:#000000;stop-opacity:1"
           d="m 501.45312,-7.4375 c 0.26589,0 0.47306,0.076699 0.67969,0.2480469 0.17677,0.146588 0.26563,0.333706 0.26563,0.6796875 0,0.3311963 -0.0869,0.5258805 -0.26563,0.6875 -0.19641,0.1711443 -0.40099,0.2480469 -0.67969,0.2480468 -0.29466,10e-8 -0.51301,-0.080355 -0.71484,-0.2519531 -0.17424,-0.1532596 -0.26172,-0.3446056 -0.26172,-0.6835937 0,-0.2903549 0.0822,-0.476222 0.27735,-0.6523438 0.21392,-0.1935509 0.4265,-0.2753906 0.69921,-0.2753906 z"
           id="path1794" />
        <path
           style="color:#000000;font-style:normal;font-variant:normal;font-weight:normal;font-stretch:normal;font-size:20.1525px;line-height:1.25;font-family:'Arial Rounded MT Bold';-inkscape-font-specification:'Arial Rounded MT Bold, Normal';font-variant-ligatures:normal;font-variant-position:normal;font-variant-caps:normal;font-variant-numeric:normal;font-variant-alternates:normal;font-variant-east-asian:normal;font-feature-settings:normal;font-variation-settings:normal;text-indent:0;text-align:start;text-decoration:none;text-decoration-line:none;text-decoration-style:solid;text-decoration-color:#000000;letter-spacing:-0.994833px;word-spacing:0px;text-transform:none;writing-mode:lr-tb;direction:ltr;text-orientation:mixed;dominant-baseline:auto;baseline-shift:baseline;text-anchor:start;white-space:normal;shape-padding:0;shape-margin:0;inline-size:0;clip-rule:nonzero;display:inline;overflow:visible;visibility:visible;isolation:auto;mix-blend-mode:normal;color-interpolation:sRGB;color-interpolation-filters:linearRGB;solid-color:#000000;solid-opacity:1;vector-effect:none;fill:#d40000;fill-opacity:1;fill-rule:nonzero;stroke:none;stroke-width:0.253144;stroke-linecap:butt;stroke-linejoin:miter;stroke-miterlimit:4;stroke-dasharray:none;stroke-dashoffset:0;stroke-opacity:1;color-rendering:auto;image-rendering:auto;shape-rendering:auto;text-rendering:auto;enable-background:accumulate;stop-color:#000000;stop-opacity:1"
           d="m 501.45312,-8.2011719 c -0.44826,0 -0.87404,0.1684524 -1.21093,0.4726563 -0.34276,0.3093225 -0.53125,0.7481381 -0.53125,1.21875 0,0.4995306 0.17604,0.9560327 0.52539,1.2617187 l 0.002,0.00195 h 0.002 c 0.33554,0.2864335 0.76068,0.4375 1.21289,0.4375 0.44194,1e-7 0.85776,-0.1526419 1.18555,-0.4394531 l 0.002,-0.00195 0.002,-0.00195 c 0.34486,-0.3103816 0.52148,-0.7635771 0.52148,-1.2578125 0,-0.5068262 -0.18181,-0.9700353 -0.54297,-1.2695313 -0.3313,-0.2747358 -0.73849,-0.421875 -1.16797,-0.421875 z"
           id="path1796" />
        <path
           id="path1798"
           d="m 465.84243,-0.33619786 c -0.44826,0 -0.87404,0.1684524 -1.21093,0.4726563 -0.34276,0.3093225 -0.53125,0.7481381 -0.53125,1.21874996 0,0.4995307 0.17604,0.9560328 0.52539,1.2617188 l 0.002,0.00195 h 0.002 c 0.33554,0.2864335 0.76068,0.4375 1.21289,0.4375 0.44194,10e-8 0.85776,-0.1526419 1.18555,-0.4394531 l 0.002,-0.00195 0.002,-0.00195 c 0.34486,-0.3103816 0.52148,-0.7635771 0.52148,-1.2578126 0,-0.50682616 -0.18181,-0.97003526 -0.54297,-1.26953126 -0.3313,-0.2747358 -0.73849,-0.421875 -1.16797,-0.421875 z"
           style="color:#000000;font-style:normal;font-variant:normal;font-weight:normal;font-stretch:normal;font-size:20.1525px;line-height:1.25;font-family:'Arial Rounded MT Bold';-inkscape-font-specification:'Arial Rounded MT Bold, Normal';font-variant-ligatures:normal;font-variant-position:normal;font-variant-caps:normal;font-variant-numeric:normal;font-variant-alternates:normal;font-variant-east-asian:normal;font-feature-settings:normal;font-variation-settings:normal;text-indent:0;text-align:start;text-decoration:none;text-decoration-line:none;text-decoration-style:solid;text-decoration-color:#000000;letter-spacing:-0.994833px;word-spacing:0px;text-transform:none;writing-mode:lr-tb;direction:ltr;text-orientation:mixed;dominant-baseline:auto;baseline-shift:baseline;text-anchor:start;white-space:normal;shape-padding:0;shape-margin:0;inline-size:0;clip-rule:nonzero;display:inline;overflow:visible;visibility:visible;isolation:auto;mix-blend-mode:normal;color-interpolation:sRGB;color-interpolation-filters:linearRGB;solid-color:#000000;solid-opacity:1;vector-effect:none;fill:#d40000;fill-opacity:1;fill-rule:nonzero;stroke:none;stroke-width:0.253144;stroke-linecap:butt;stroke-linejoin:miter;stroke-miterlimit:4;stroke-dasharray:none;stroke-dashoffset:0;stroke-opacity:1;color-rendering:auto;image-rendering:auto;shape-rendering:auto;text-rendering:auto;enable-background:accumulate;stop-color:#000000;stop-opacity:1" />
      </g>
      <g
         id="g1806"
         style="opacity:1;stroke-width:0.253144">
        <path
           style="color:#000000;font-style:normal;font-variant:normal;font-weight:normal;font-stretch:normal;font-size:20.1525px;line-height:1.25;font-family:'Arial Rounded MT Bold';-inkscape-font-specification:'Arial Rounded MT Bold, Normal';font-variant-ligatures:normal;font-variant-position:normal;font-variant-caps:normal;font-variant-numeric:normal;font-variant-alternates:normal;font-variant-east-asian:normal;font-feature-settings:normal;font-variation-settings:normal;text-indent:0;text-align:start;text-decoration:none;text-decoration-line:none;text-decoration-style:solid;text-decoration-color:#000000;letter-spacing:-0.994833px;word-spacing:0px;text-transform:none;writing-mode:lr-tb;direction:ltr;text-orientation:mixed;dominant-baseline:auto;baseline-shift:baseline;text-anchor:start;white-space:normal;shape-padding:0;shape-margin:0;inline-size:0;clip-rule:nonzero;display:inline;overflow:visible;visibility:visible;isolation:auto;mix-blend-mode:normal;color-interpolation:sRGB;color-interpolation-filters:linearRGB;solid-color:#000000;solid-opacity:1;vector-effect:none;fill:#337180;fill-opacity:1;fill-rule:nonzero;stroke:none;stroke-width:0.253144;stroke-linecap:butt;stroke-linejoin:miter;stroke-miterlimit:4;stroke-dasharray:none;stroke-dashoffset:0;stroke-opacity:1;color-rendering:auto;image-rendering:auto;shape-rendering:auto;text-rendering:auto;enable-background:accumulate;stop-color:#000000;stop-opacity:1"
           d="m 512.08341,2.1783623 h -5.25461 c 0.007,0.6100855 0.12803,1.1480103 0.36408,1.6137744 0.24273,0.4657642 0.56089,0.8167273 0.95449,1.0528894 0.40017,0.2361621 0.83969,0.3542432 1.31857,0.3542432 0.32145,0 0.61337,-0.03608 0.87577,-0.108241 0.26896,-0.078721 0.52808,-0.1968017 0.77737,-0.3542431 0.24928,-0.1640015 0.47888,-0.337843 0.6888,-0.5215247 0.20993,-0.1836817 0.48217,-0.4329639 0.81673,-0.7478467 0.13776,-0.1180811 0.33456,-0.1771216 0.59041,-0.1771216 0.27552,0 0.49856,0.075441 0.66912,0.2263221 0.17057,0.1508813 0.25585,0.3640832 0.25585,0.6396057 0,0.2427221 -0.0951,0.5280847 -0.28537,0.8560876 -0.19024,0.3214429 -0.47888,0.6330457 -0.86593,0.9348084 -0.38048,0.2952026 -0.86264,0.5412048 -1.44649,0.7380066 -0.57729,0.1968017 -1.24313,0.2952026 -1.99754,0.2952026 -1.72529,0 -3.06682,-0.4920044 -4.02459,-1.4760132 -0.95777,-0.9840088 -1.43665,-2.3189807 -1.43665,-4.0049158 0,-0.79376708 0.11808,-1.52849364 0.35424,-2.20417968 0.23616,-0.68224612 0.58056,-1.26609132 1.03321,-1.75153562 0.45264,-0.4854443 1.01024,-0.8560877 1.67281,-1.11193 0.66257,-0.2624023 1.39729,-0.3936035 2.20418,-0.3936035 1.04961,0 1.94834,0.223042 2.69619,0.669126 0.75441,0.4395239 1.31857,1.010249 1.69249,1.7121753 0.37393,0.70192627 0.56089,1.41697266 0.56089,2.14513917 0,0.67568603 -0.19352,1.11520993 -0.58057,1.31857183 -0.38704,0.1968017 -0.93152,0.2952026 -1.63345,0.2952026 z M 506.8288,0.65314866 h 4.87084 c -0.0656,-0.91840821 -0.31488,-1.60393433 -0.74784,-2.05657836 -0.42641,-0.4592041 -0.99057,-0.6888062 -1.6925,-0.6888062 -0.66913,0 -1.22017,0.2328821 -1.65313,0.6986463 -0.42641,0.45920408 -0.68553,1.14145017 -0.77737,2.04673826 z"
           id="path1802" />
        <path
           style="color:#000000;font-style:normal;font-variant:normal;font-weight:normal;font-stretch:normal;font-size:20.1525px;line-height:1.25;font-family:'Arial Rounded MT Bold';-inkscape-font-specification:'Arial Rounded MT Bold, Normal';font-variant-ligatures:normal;font-variant-position:normal;font-variant-caps:normal;font-variant-numeric:normal;font-variant-alternates:normal;font-variant-east-asian:normal;font-feature-settings:normal;font-variation-settings:normal;text-indent:0;text-align:start;text-decoration:none;text-decoration-line:none;text-decoration-style:solid;text-decoration-color:#000000;letter-spacing:-0.994833px;word-spacing:0px;text-transform:none;writing-mode:lr-tb;direction:ltr;text-orientation:mixed;dominant-baseline:auto;baseline-shift:baseline;text-anchor:start;white-space:normal;shape-padding:0;shape-margin:0;inline-size:0;clip-rule:nonzero;display:inline;overflow:visible;visibility:visible;isolation:auto;mix-blend-mode:normal;color-interpolation:sRGB;color-interpolation-filters:linearRGB;solid-color:#000000;solid-opacity:1;vector-effect:none;fill:#337180;fill-opacity:1;fill-rule:nonzero;stroke:none;stroke-width:0.253144;stroke-linecap:butt;stroke-linejoin:miter;stroke-miterlimit:4;stroke-dasharray:none;stroke-dashoffset:0;stroke-opacity:1;color-rendering:auto;image-rendering:auto;shape-rendering:auto;text-rendering:auto;enable-background:accumulate;stop-color:#000000;stop-opacity:1"
           d="m 509.34766,-4.34375 c -0.84767,0 -1.63222,0.1384054 -2.34375,0.4199219 -0.70997,0.2745633 -1.31985,0.6786736 -1.8125,1.2070312 -0.49097,0.5265456 -0.86354,1.1595882 -1.11524,1.88671878 -0.25155,0.71972515 -0.375,1.49837749 -0.375,2.33007812 0,1.7583668 0.511,3.2092338 1.54492,4.2714844 1.03784,1.0662709 2.50082,1.5917968 4.29883,1.5917968 0.78696,10e-8 1.49411,-0.1035758 2.11914,-0.3164062 0.61487,-0.2072592 1.13578,-0.468822 1.5586,-0.796875 l 0.002,-0.00195 c 0.41502,-0.3235713 0.73756,-0.6668755 0.95898,-1.0410157 l 0.002,-0.00195 c 0.21079,-0.3634245 0.33789,-0.7061709 0.33789,-1.0488281 0,-0.3544534 -0.12961,-0.6983453 -0.38672,-0.9257812 -0.24712,-0.2186046 -0.57653,-0.3222657 -0.92188,-0.3222657 -0.31469,0 -0.61324,0.075305 -0.83984,0.2695313 l -0.006,0.00586 -0.006,0.00586 c -0.33251,0.3129579 -0.60245,0.5596169 -0.80664,0.7382813 -0.19421,0.1699396 -0.40927,0.332467 -0.64258,0.4863281 -5.2e-4,3.32e-4 -10e-4,-3.316e-4 -0.002,0 -0.002,0.00104 -0.002,0.00286 -0.004,0.00391 -0.21732,0.1365213 -0.43862,0.2369741 -0.66797,0.3046874 -5.5e-4,1.533e-4 -10e-4,-1.528e-4 -0.002,0 -0.22351,0.061277 -0.47939,0.09375 -0.77148,0.09375 -0.41601,0 -0.78235,-0.098563 -1.125,-0.3007812 -0.32606,-0.1962251 -0.59366,-0.4855939 -0.8086,-0.8964844 v -0.00195 c -4.9e-4,-9.395e-4 -0.001,-0.00101 -0.002,-0.00195 -0.15009,-0.2972347 -0.18964,-0.6773348 -0.23437,-1.0546875 h 4.7871 c 0.73768,0 1.33633,-0.096792 1.80664,-0.3359375 l 0.002,-0.00195 h 0.002 c 0.54146,-0.2844931 0.78516,-0.9094825 0.78516,-1.65820308 0,-0.79364006 -0.20574,-1.57385232 -0.60547,-2.32421872 -0.4081,-0.7660871 -1.03,-1.391225 -1.83594,-1.8613282 -0.81514,-0.4857888 -1.78752,-0.7226562 -2.89062,-0.7226562 z m 0,0.7636719 c 0.99542,0 1.81976,0.2094815 2.5,0.6152343 l 0.002,0.00195 h 0.002 c 0.70163,0.4087761 1.20757,0.9255439 1.54688,1.5625 0.34812,0.65348607 0.51562,1.30215077 0.51562,1.96484372 0,0.60160418 -0.14308,0.85603588 -0.375,0.97851568 -0.30394,0.1537698 -0.79063,0.2519531 -1.45508,0.2519531 h -5.64257 l 0.006,0.3867187 c 0.007,0.6583453 0.13845,1.2586651 0.40429,1.7832032 l 0.002,0.00195 v 0.00195 c 0.26964,0.5174104 0.63867,0.9296858 1.09765,1.2050781 h 0.002 c 0.45769,0.270106 0.97192,0.4082031 1.51368,0.4082031 0.35007,0 0.67566,-0.040298 0.97656,-0.1230468 h 0.002 0.004 c 0.30436,-0.089082 0.59754,-0.2232011 0.875,-0.3984375 l 0.002,-0.00195 0.004,-0.00195 c 0.26287,-0.1729431 0.50654,-0.3567931 0.73047,-0.5527344 0.21247,-0.185912 0.48462,-0.4358601 0.81445,-0.7460937 0.0492,-0.041722 0.1439,-0.085937 0.33984,-0.085937 0.2057,0 0.32202,0.047701 0.41602,0.1308594 0.084,0.074327 0.12695,0.1569241 0.12695,0.3535156 0,0.1427871 -0.0647,0.3714811 -0.23437,0.6640625 -0.15913,0.2681405 -0.41134,0.5449483 -0.76953,0.8242187 -0.33814,0.2623523 -0.78117,0.4913901 -1.33399,0.6777344 h -0.002 c -0.52912,0.1803817 -1.1519,0.2753906 -1.87305,0.2753906 -1.65257,1e-7 -2.8723,-0.4576283 -3.75,-1.359375 C 504.91331,4.3325142 504.4668,3.1135033 504.4668,1.5 c 0,-0.75583353 0.11126,-1.44647807 0.33203,-2.078125 v -0.001953 c 0.22062,-0.6373616 0.53685,-1.1708913 0.95117,-1.6152344 0.41201,-0.4418739 0.91722,-0.7785229 1.53125,-1.015625 l 0.002,-0.00195 h 0.002 c 0.61314,-0.2428294 1.29707,-0.3671875 2.0625,-0.3671875 z m -0.0879,1.1054687 c -0.75788,0 -1.43374,0.2825787 -1.9336,0.8203125 -0.50237,0.5410139 -0.77977,1.31156481 -0.87695,2.26953128 l -0.043,0.41992182 h 0.42187 5.28321 L 512.08203,0.625 c -0.0695,-0.97260388 -0.33699,-1.7520216 -0.85156,-2.2910156 -0.49748,-0.5346308 -1.18631,-0.8085938 -1.9707,-0.8085938 z m 0,0.765625 c 0.61851,0 1.05691,0.1838918 1.41211,0.5664063 l 0.002,0.00195 0.002,0.00195 c 0.27165,0.28400289 0.39329,0.83398118 0.49805,1.41015628 h -3.8086 c 0.11929,-0.56664806 0.25173,-1.11379227 0.52149,-1.40429688 0.36606,-0.3937946 0.79267,-0.5761719 1.37305,-0.5761719 z"
           id="path1804" />
      </g>
    </g>
    <g
       style="font-style:normal;font-variant:normal;font-weight:normal;font-stretch:normal;font-size:26.2874px;line-height:1.25;font-family:'Arial Rounded MT Bold';-inkscape-font-specification:'Arial Rounded MT Bold, Normal';font-variant-ligatures:normal;font-variant-caps:normal;font-variant-numeric:normal;font-variant-east-asian:normal;letter-spacing:0px;word-spacing:0px;fill:#d40000;fill-opacity:1;stroke:none;stroke-width:0.264583"
       id="text1814"
       aria-label="CBMDF">
      <path
         id="path170"
         style="font-style:normal;font-variant:normal;font-weight:normal;font-stretch:normal;font-size:26.2874px;font-family:'Arial Rounded MT Bold';-inkscape-font-specification:'Arial Rounded MT Bold, Normal';font-variant-ligatures:normal;font-variant-caps:normal;font-variant-numeric:normal;font-variant-east-asian:normal;fill:#d40000;fill-opacity:1;stroke-width:0.264583"
         d="m 94.005863,69.027479 q 0,0.898496 -0.449247,1.951018 -0.436412,1.039688 -1.38625,2.053703 -0.949837,1.001181 -2.425937,1.630127 -1.476099,0.628947 -3.439952,0.628947 -1.488935,0 -2.708321,-0.282384 -1.219386,-0.282385 -2.220567,-0.872824 -0.988344,-0.603275 -1.822661,-1.578784 -0.744467,-0.88566 -1.270729,-1.97669 -0.526261,-1.103865 -0.79581,-2.348923 -0.256713,-1.245057 -0.256713,-2.644142 0,-2.271909 0.654618,-4.068899 0.667454,-1.796991 1.899676,-3.067719 1.232221,-1.283565 2.88802,-1.951018 1.655798,-0.667454 3.529802,-0.667454 2.284744,0 4.068899,0.911331 1.784154,0.911331 2.733992,2.259073 0.949838,1.334907 0.949838,2.528622 0,0.654618 -0.462083,1.155208 -0.462084,0.50059 -1.116701,0.50059 -0.731632,0 -1.103866,-0.346562 -0.359398,-0.346562 -0.808645,-1.193715 -0.744468,-1.399085 -1.758484,-2.09221 -1.00118,-0.693125 -2.477279,-0.693125 -2.348923,0 -3.748008,1.784155 -1.38625,1.784154 -1.38625,5.070079 0,2.194895 0.616111,3.658159 0.616111,1.450428 1.745648,2.169224 1.129536,0.718796 2.644143,0.718796 1.642962,0 2.772499,-0.808646 1.142372,-0.821481 1.719976,-2.400265 0.243877,-0.744468 0.603275,-1.206551 0.359398,-0.474919 1.155208,-0.474919 0.680289,0 1.168044,0.474919 0.487754,0.474919 0.487754,1.180879 z" />
      <path
         id="path172"
         style="font-style:normal;font-variant:normal;font-weight:normal;font-stretch:normal;font-size:26.2874px;font-family:'Arial Rounded MT Bold';-inkscape-font-specification:'Arial Rounded MT Bold, Normal';font-variant-ligatures:normal;font-variant-caps:normal;font-variant-numeric:normal;font-variant-east-asian:normal;fill:#d40000;fill-opacity:1;stroke-width:0.264583"
         d="m 105.46809,74.970383 h -5.750364 q -1.245058,0 -1.784155,-0.551933 Q 97.40731,73.853682 97.40731,72.634295 V 58.489416 q 0,-1.245058 0.539097,-1.784155 0.551933,-0.551933 1.771319,-0.551933 h 6.096934 q 1.34774,0 2.33608,0.166864 0.98835,0.166863 1.77132,0.641782 0.66746,0.397905 1.18088,1.014016 0.51343,0.603275 0.78298,1.347742 0.26955,0.731632 0.26955,1.553113 0,2.823842 -2.82385,4.133078 3.7095,1.180879 3.7095,4.59516 0,1.578785 -0.80864,2.849513 -0.80865,1.257894 -2.18206,1.861169 -0.85999,0.359398 -1.97669,0.513426 -1.1167,0.141192 -2.60564,0.141192 z m -0.28238,-8.356005 h -3.96621 v 5.493656 h 4.09457 q 3.86353,0 3.86353,-2.785335 0,-1.424756 -1.00118,-2.066538 -1.00118,-0.641783 -2.99071,-0.641783 z m -3.96621,-7.598701 v 4.864709 h 3.49129 q 1.42476,0 2.1949,-0.269548 0.78297,-0.269549 1.19371,-1.026852 0.32089,-0.539097 0.32089,-1.206551 0,-1.424756 -1.01401,-1.886839 -1.01402,-0.474919 -3.09339,-0.474919 z" />
      <path
         id="path174"
         style="font-style:normal;font-variant:normal;font-weight:normal;font-stretch:normal;font-size:26.2874px;font-family:'Arial Rounded MT Bold';-inkscape-font-specification:'Arial Rounded MT Bold, Normal';font-variant-ligatures:normal;font-variant-caps:normal;font-variant-numeric:normal;font-variant-east-asian:normal;fill:#d40000;fill-opacity:1;stroke-width:0.264583"
         d="m 122.68069,72.133705 -3.01637,-11.988491 v 12.989672 q 0,1.078194 -0.48776,1.617291 -0.47492,0.539097 -1.27073,0.539097 -0.77014,0 -1.25789,-0.526262 -0.48775,-0.539097 -0.48775,-1.630126 V 58.245538 q 0,-1.232222 0.64178,-1.655798 0.64178,-0.436412 1.73281,-0.436412 h 1.18088 q 1.06536,0 1.54028,0.192535 0.48775,0.192535 0.71879,0.693125 0.23104,0.50059 0.52626,1.630127 l 2.734,10.307022 2.73399,-10.307022 q 0.29522,-1.129537 0.52626,-1.630127 0.23104,-0.50059 0.70596,-0.693125 0.48775,-0.192535 1.55311,-0.192535 h 1.18088 q 1.09103,0 1.73281,0.436412 0.64179,0.423576 0.64179,1.655798 v 14.889348 q 0,1.078194 -0.48776,1.617291 -0.47492,0.539097 -1.28356,0.539097 -0.75731,0 -1.24506,-0.539097 -0.48775,-0.539097 -0.48775,-1.617291 V 60.145214 l -3.01638,11.988491 q -0.29522,1.168044 -0.48776,1.719977 -0.17969,0.539097 -0.68028,0.988344 -0.50059,0.449248 -1.38625,0.449248 -0.66746,0 -1.12954,-0.29522 -0.46208,-0.282384 -0.7188,-0.731632 -0.25671,-0.449247 -0.41074,-0.988344 -0.14119,-0.551933 -0.29522,-1.142373 z" />
      <path
         id="path176"
         style="font-style:normal;font-variant:normal;font-weight:normal;font-stretch:normal;font-size:26.2874px;font-family:'Arial Rounded MT Bold';-inkscape-font-specification:'Arial Rounded MT Bold, Normal';font-variant-ligatures:normal;font-variant-caps:normal;font-variant-numeric:normal;font-variant-east-asian:normal;fill:#d40000;fill-opacity:1;stroke-width:0.264583"
         d="m 140.61209,56.153328 h 4.96739 q 1.93818,0 3.32443,0.359398 1.38625,0.359398 2.51579,1.347743 2.93936,2.515786 2.93936,7.650044 0,1.694305 -0.29522,3.09339 -0.29522,1.399085 -0.91133,2.528622 -0.61611,1.116701 -1.57878,2.002361 -0.75731,0.680289 -1.6558,1.091029 -0.8985,0.410741 -1.93818,0.577604 -1.02686,0.166864 -2.32326,0.166864 h -4.96739 q -1.03969,0 -1.56595,-0.308056 -0.52626,-0.320891 -0.69312,-0.885659 Q 138.276,73.199064 138.276,72.287733 V 58.489416 q 0,-1.232222 0.55193,-1.784155 0.55193,-0.551933 1.78416,-0.551933 z m 1.4761,3.016377 v 12.771466 h 2.88802 q 0.94983,0 1.48893,-0.05134 0.5391,-0.05134 1.1167,-0.256713 0.57761,-0.20537 1.00118,-0.577604 1.91251,-1.617291 1.91251,-5.570669 0,-2.785335 -0.84715,-4.171585 -0.83432,-1.386249 -2.06654,-1.758483 -1.23222,-0.385069 -2.97787,-0.385069 z" />
      <path
         id="path178"
         style="font-style:normal;font-variant:normal;font-weight:normal;font-stretch:normal;font-size:26.2874px;font-family:'Arial Rounded MT Bold';-inkscape-font-specification:'Arial Rounded MT Bold, Normal';font-variant-ligatures:normal;font-variant-caps:normal;font-variant-numeric:normal;font-variant-east-asian:normal;fill:#d40000;fill-opacity:1;stroke-width:0.264583"
         d="m 168.95319,59.092691 h -7.50885 v 4.813366 h 6.27663 q 0.87282,0 1.2964,0.397905 0.43641,0.38507 0.43641,1.039688 0,0.654617 -0.43641,1.039687 -0.43641,0.385069 -1.2964,0.385069 h -6.27663 v 6.199616 q 0,1.180879 -0.5391,1.758483 -0.52626,0.564769 -1.36058,0.564769 -0.84715,0 -1.38625,-0.577604 -0.52626,-0.577604 -0.52626,-1.745648 V 58.489416 q 0,-0.821482 0.24388,-1.334907 0.24388,-0.526262 0.7573,-0.757303 0.52627,-0.243878 1.33491,-0.243878 h 8.98495 q 0.91133,0 1.34774,0.410741 0.44925,0.397905 0.44925,1.052523 0,0.667453 -0.44925,1.078194 -0.43641,0.397905 -1.34774,0.397905 z" />
    </g>
  </g>
</svg>
